M48
; DRILL file {KiCad (5.1.12)-1} date 03/27/22 00:10:21
; FORMAT={-:-/ absolute / inch / decimal}
; #@! TF.CreationDate,2022-03-27T00:10:21+05:30
; #@! TF.GenerationSoftware,Kicad,Pcbnew,(5.1.12)-1
; #@! TF.FileFunction,Plated,1,2,PTH
FMAT,2
INCH
T1C0.0157
T2C0.0236
T3C0.0276
T4C0.0315
T5C0.0354
T6C0.0394
T7C0.0400
T8C0.0433
T9C0.0866
%
G90
G05
T1
X1.5278Y-3.5366
X1.5362Y-4.4754
X1.7216Y-5.2284
X1.804Y-5.975
X1.9992Y-6.7272
X2.2888Y-4.4746
X2.3306Y-7.6732
X2.363Y-7.7634
X2.3805Y-3.1683
X2.4204Y-3.1596
X2.4855Y-2.5655
X2.549Y-3.849
X2.5524Y-3.9482
X2.561Y-7.476
X2.645Y-6.417
X2.6554Y-5.2274
X2.8414Y-5.9768
X2.8825Y-2.6255
X2.92Y-7.213
X3.0296Y-3.5398
X3.0309Y-4.4745
X3.1295Y-2.7745
X3.1725Y-2.9855
X3.2182Y-6.724
X3.2395Y-2.6155
X3.405Y-5.2262
X3.5012Y-7.4766
X3.5958Y-5.9734
X3.6325Y-2.5655
X3.7782Y-3.54
X3.781Y-4.4742
X3.968Y-6.718
X4.1554Y-5.227
X4.1925Y-2.8415
X4.207Y-7.6728
X4.3426Y-5.975
X4.4085Y-2.6465
X4.4745Y-2.8805
X4.531Y-4.4766
X4.5324Y-3.537
X4.6365Y-2.5775
X4.7186Y-6.7254
X4.7545Y-2.6635
X4.8345Y-2.6755
X4.9058Y-5.2242
X4.9855Y-2.7835
X5.093Y-5.9744
X5.16Y-2.668
X5.2804Y-4.473
X5.2838Y-3.5388
X5.4684Y-6.726
X5.4875Y-2.6365
X5.6564Y-5.2242
X5.8422Y-5.9726
X5.9395Y-2.5635
X6.0306Y-4.4728
X6.0565Y-2.9155
X6.2178Y-6.7272
X6.2525Y-2.8615
X6.2605Y-2.5715
X6.313Y-7.4758
X6.4056Y-5.2248
X6.4068Y-3.5396
X6.4975Y-2.6255
X6.5595Y-2.7595
X6.5918Y-2.3758
X6.5938Y-5.979
X6.6302Y-2.407
X6.6505Y-2.6215
X6.7385Y-2.6215
X6.7826Y-4.4738
X6.9035Y-2.5975
X6.9678Y-6.72
X7.0565Y-2.6175
X7.1546Y-5.2238
X7.155Y-3.5374
X7.1585Y-2.8535
X7.2455Y-3.4125
X7.2875Y-2.9815
X7.3452Y-5.9746
X7.3515Y-2.5655
X7.5342Y-4.4752
X7.5732Y-2.4242
X7.6335Y-2.8465
X7.7202Y-6.7244
X7.8055Y-2.3445
X7.8145Y-2.6885
X7.8315Y-2.5775
X7.9052Y-5.2254
X7.9064Y-3.5388
X8.0185Y-2.9025
X8.0948Y-5.9752
X8.1904Y-2.4635
X8.1906Y-2.5157
X8.2239Y-2.4635
X8.2241Y-2.5157
X8.2573Y-2.4635
X8.2575Y-2.5157
X8.2795Y-2.8205
X8.2804Y-4.4738
X8.2908Y-2.4635
X8.291Y-2.5157
X8.2935Y-2.5645
X8.3095Y-2.7875
X8.3243Y-2.4635
X8.3245Y-2.5157
X8.327Y-2.5871
X8.3421Y-2.853
X8.3577Y-2.4635
X8.3579Y-2.5157
X8.3618Y-2.819
X8.3625Y-2.6105
X8.3912Y-2.4635
X8.3914Y-2.5157
X8.4249Y-2.4635
X8.4249Y-2.5157
X8.4375Y-2.7065
X8.4445Y-2.6215
X8.466Y-6.7246
X8.6558Y-5.2248
X8.656Y-3.539
X8.8434Y-5.9754
X8.9625Y-2.7375
X9.0314Y-4.4742
X9.0665Y-3.0855
X9.125Y-7.4748
X9.2196Y-6.7248
X9.2349Y-2.6084
X9.2627Y-2.752
X9.2631Y-2.6941
X9.2639Y-2.637
X9.2956Y-2.729
X9.2967Y-2.6719
X9.4066Y-5.225
X9.5918Y-5.975
X9.6065Y-5.7355
X9.7275Y-4.8945
X9.7818Y-4.4764
X9.7826Y-3.5378
X9.9095Y-2.4675
X9.9685Y-2.8475
X9.9688Y-6.7272
X9.97Y-7.4754
X9.9715Y-2.7425
X9.9835Y-2.4625
X10.0615Y-2.8765
X10.1195Y-2.7285
X10.1205Y-2.2195
X10.3015Y-2.2235
X10.3115Y-2.5595
X10.3438Y-5.9768
X10.344Y-5.0018
X10.4815Y-2.4565
X10.531Y-3.5384
X10.5322Y-4.474
X10.5485Y-2.5815
X10.5945Y-2.5075
X10.675Y-7.6736
X10.7176Y-2.5704
X10.8955Y-2.7985
X10.9068Y-5.2248
X10.9074Y-7.4768
X10.921Y-2.507
X10.9535Y-2.4775
X11.0975Y-2.5785
X11.115Y-2.785
X11.225Y-2.642
X11.282Y-3.539
X11.3766Y-6.7252
X11.4845Y-2.2645
X11.562Y-5.9754
X11.5655Y-2.4875
X11.6124Y-7.6748
X11.628Y-3.1128
X11.6558Y-4.4738
X11.7705Y-2.4505
X11.8436Y-5.2276
X11.844Y-7.4762
X12.0324Y-3.5376
X12.3018Y-7.7872
X12.3205Y-2.6885
X12.3255Y-2.5015
X12.3285Y-2.3985
X12.3875Y-2.4855
X12.4865Y-2.4195
X12.5405Y-2.6265
X12.5508Y-7.6732
X12.8435Y-2.6695
X12.9678Y-5.2246
X12.968Y-4.4746
X12.9682Y-7.4744
X13.0098Y-3.3136
X13.4195Y-2.4445
X13.7176Y-6.7242
X13.718Y-5.224
X13.7184Y-4.4754
X13.7184Y-7.4746
X13.7872Y-3.366
X13.8965Y-2.8605
X14.4686Y-3.5382
X14.4688Y-5.2258
X14.4692Y-4.4756
X14.4702Y-7.475
X14.8015Y-2.8505
X14.81Y-6.075
X14.904Y-6.077
X15.031Y-4.758
X15.034Y-4.859
T2
X8.5805Y-2.6146
X8.5805Y-2.6737
T3
X8.0124Y-2.2511
X8.0124Y-2.4519
X8.7545Y-2.3945
X8.7545Y-2.4934
X8.7545Y-2.5922
X8.7545Y-2.6911
X8.7545Y-2.7899
X8.7545Y-2.8888
X8.7545Y-2.9876
X9.0545Y-2.3945
X9.0545Y-2.4934
X9.0545Y-2.5922
X9.0545Y-2.6911
X9.0545Y-2.7899
X9.0545Y-2.8888
X9.0545Y-2.9876
T4
X1.8497Y-2.5628
X1.8497Y-2.7628
X1.9772Y-2.6604
X1.9772Y-2.8604
X2.1047Y-2.7581
X2.1047Y-2.9581
X2.2323Y-2.5628
X2.2323Y-2.7628
X2.3598Y-2.6604
X2.3598Y-2.8604
X2.4873Y-2.7581
X2.4873Y-2.9581
X2.6149Y-2.5628
X2.6149Y-2.7628
X2.7424Y-2.6604
X2.7424Y-2.8604
X2.87Y-2.7581
X2.87Y-2.9581
X2.9975Y-2.5628
X2.9975Y-2.7628
X3.125Y-2.6604
X3.125Y-2.8604
X3.2526Y-2.7581
X3.2526Y-2.9581
X3.3801Y-2.5628
X3.3801Y-2.7628
X3.5076Y-2.6604
X3.5076Y-2.8604
X3.6352Y-2.7581
X3.6352Y-2.9581
X3.7627Y-2.5628
X3.7627Y-2.7628
X3.8902Y-2.6604
X3.8902Y-2.8604
X4.0178Y-2.7581
X4.0178Y-2.9581
X4.1453Y-2.5628
X4.1453Y-2.7628
X4.2729Y-2.6604
X4.2729Y-2.8604
X4.4004Y-2.7581
X4.4004Y-2.9581
X4.5279Y-2.5628
X4.5279Y-2.7628
X4.6555Y-2.6604
X4.6555Y-2.8604
X4.783Y-2.7581
X4.783Y-2.9581
X4.9105Y-2.5628
X4.9105Y-2.7628
X5.0381Y-2.6604
X5.0381Y-2.8604
X5.1656Y-2.7581
X5.1656Y-2.9581
X5.2932Y-2.5628
X5.2932Y-2.7628
X5.4207Y-2.6604
X5.4207Y-2.8604
X5.5482Y-2.7581
X5.5482Y-2.9581
X5.6758Y-2.5628
X5.6758Y-2.7628
X5.8033Y-2.6604
X5.8033Y-2.8604
X5.9308Y-2.7581
X5.9308Y-2.9581
X6.0584Y-2.5628
X6.0584Y-2.7628
X6.1859Y-2.6604
X6.1859Y-2.8604
X6.3134Y-2.7581
X6.3134Y-2.9581
X6.441Y-2.5628
X6.441Y-2.7628
X6.5685Y-2.6604
X6.5685Y-2.8604
X6.6961Y-2.7581
X6.6961Y-2.9581
X6.8236Y-2.5628
X6.8236Y-2.7628
X6.9511Y-2.6604
X6.9511Y-2.8604
X7.0787Y-2.7581
X7.0787Y-2.9581
X7.2062Y-2.5628
X7.2062Y-2.7628
X7.3337Y-2.6525
X7.3337Y-2.8525
X7.4613Y-2.7581
X7.4613Y-2.9581
X7.5888Y-2.5628
X7.5888Y-2.7628
X7.7164Y-2.6525
X7.7164Y-2.8525
X7.8439Y-2.7581
X7.8439Y-2.9581
X7.9714Y-2.5628
X7.9714Y-2.7628
X8.099Y-2.6525
X8.099Y-2.8525
X8.2265Y-2.7581
X8.2265Y-2.9581
X8.5205Y-2.7875
X8.5205Y-2.9875
X8.6365Y-2.7875
X8.6365Y-2.9875
X9.1975Y-2.3325
X9.1975Y-2.9325
X9.2975Y-2.3325
X9.2975Y-2.9325
X9.3975Y-2.3325
X9.3975Y-2.9325
X9.4975Y-2.3325
X9.4975Y-2.9325
X9.5975Y-2.3325
X9.5975Y-2.9325
X9.6975Y-2.3325
X9.6975Y-2.9325
X9.7975Y-2.3325
X9.7975Y-2.9325
X9.8975Y-2.3325
X9.8975Y-2.9325
X9.9245Y-3.0285
X9.9975Y-2.3325
X9.9975Y-2.9325
X9.9976Y-2.2345
X10.0975Y-2.3325
X10.0975Y-2.9325
X10.1214Y-3.0285
X10.1945Y-2.2345
X10.1975Y-2.3325
X10.1975Y-2.9325
X10.2215Y-3.0591
X10.2215Y-3.1575
X10.2975Y-2.3325
X10.2975Y-2.9325
X10.3975Y-2.3325
X10.3975Y-2.9325
X10.4074Y-3.0885
X10.4975Y-2.3325
X10.4975Y-2.9325
X10.5975Y-2.3325
X10.5975Y-2.9325
X10.5995Y-3.0885
X10.6975Y-2.3325
X10.6975Y-2.9325
X10.7855Y-3.0591
X10.7855Y-3.1575
X10.7975Y-2.3325
X10.7975Y-2.9325
X10.8975Y-2.3325
X10.8975Y-2.9325
X10.9975Y-2.3325
X10.9975Y-2.9325
X11.0975Y-2.3325
X11.0975Y-2.9325
X11.702Y-2.3496
X11.702Y-2.5496
X11.702Y-2.7581
X11.702Y-2.9581
X11.8411Y-2.3496
X11.8411Y-2.5496
X11.8411Y-2.7581
X11.8411Y-2.9581
X11.9802Y-2.3496
X11.9802Y-2.5496
X11.9802Y-2.7581
X11.9802Y-2.9581
X12.1193Y-2.3496
X12.1193Y-2.5496
X12.1193Y-2.7581
X12.1193Y-2.9581
X12.2585Y-2.3496
X12.2585Y-2.5496
X12.2585Y-2.7581
X12.2585Y-2.9581
X12.3976Y-2.3496
X12.3976Y-2.5496
X12.3976Y-2.7581
X12.3976Y-2.9581
X12.5367Y-2.3496
X12.5367Y-2.5496
X12.5367Y-2.7581
X12.5367Y-2.9581
X12.6759Y-2.3496
X12.6759Y-2.5496
X12.6759Y-2.7581
X12.6759Y-2.9581
X12.815Y-2.3496
X12.815Y-2.5496
X12.815Y-2.7581
X12.815Y-2.9581
X12.9541Y-2.3496
X12.9541Y-2.5496
X12.9541Y-2.7581
X12.9541Y-2.9581
X13.0933Y-2.3496
X13.0933Y-2.5496
X13.0933Y-2.7581
X13.0933Y-2.9581
X13.2324Y-2.3496
X13.2324Y-2.5496
X13.2324Y-2.7581
X13.2324Y-2.9581
X13.3715Y-2.3496
X13.3715Y-2.5496
X13.3715Y-2.7581
X13.3715Y-2.9581
X13.5107Y-2.7581
X13.5107Y-2.9581
X13.6498Y-2.7581
X13.6498Y-2.9581
X13.7889Y-2.7581
X13.7889Y-2.9581
X13.9281Y-2.7581
X13.9281Y-2.9581
X14.0672Y-2.7581
X14.0672Y-2.9581
X14.2063Y-2.7581
X14.2063Y-2.9581
X14.3454Y-2.7581
X14.3454Y-2.9581
X14.4846Y-2.7581
X14.4846Y-2.9581
X14.6237Y-2.7581
X14.6237Y-2.9581
X14.7628Y-2.7581
X14.7628Y-2.9581
T5
X8.5668Y-2.3435
X8.6668Y-2.3435
T6
X11.355Y-2.553
X11.355Y-2.653
X11.355Y-2.753
X11.355Y-2.853
T7
X7.2287Y-2.2715
X7.2287Y-2.3715
X7.3287Y-2.2715
X7.3287Y-2.3715
X7.4287Y-2.2715
X7.4287Y-2.3715
T8
X6.2317Y-2.2555
X6.2317Y-2.4327
X6.4876Y-2.2555
X6.4876Y-2.4327
X6.7332Y-2.2565
X6.7332Y-2.4337
X6.9891Y-2.2565
X6.9891Y-2.4337
T9
X1.62Y-2.3352
X1.62Y-3.0734
X3.081Y-6.501
X3.4Y-4.1005
X5.3045Y-2.3352
X5.3045Y-3.0734
X8.3077Y-4.1005
X8.3078Y-7.5664
X11.308Y-2.3352
X11.308Y-3.0734
X12.9364Y-5.8925
X12.9364Y-7.0041
X13.2125Y-4.1005
X14.9654Y-5.8925
X14.9654Y-7.0041
X14.9925Y-2.3352
X14.9925Y-3.0734
T2
G00X8.1375Y-2.3598
M15
G01X8.1375Y-2.3283
M16
G05
G00X8.1375Y-2.5066
M15
G01X8.1375Y-2.4475
M16
G05
G00X8.478Y-2.3598
M15
G01X8.478Y-2.3283
M16
G05
G00X8.478Y-2.5066
M15
G01X8.478Y-2.4475
M16
G05
T0
M30
