G04 #@! TF.GenerationSoftware,KiCad,Pcbnew,(5.1.12)-1*
G04 #@! TF.CreationDate,2022-03-27T00:10:19+05:30*
G04 #@! TF.ProjectId,mysterium-pcb,6d797374-6572-4697-956d-2d7063622e6b,rev?*
G04 #@! TF.SameCoordinates,Original*
G04 #@! TF.FileFunction,Legend,Bot*
G04 #@! TF.FilePolarity,Positive*
%FSLAX46Y46*%
G04 Gerber Fmt 4.6, Leading zero omitted, Abs format (unit mm)*
G04 Created by KiCad (PCBNEW (5.1.12)-1) date 2022-03-27 00:10:19*
%MOMM*%
%LPD*%
G01*
G04 APERTURE LIST*
%ADD10C,0.300000*%
%ADD11C,0.200000*%
G04 #@! TA.AperFunction,Profile*
%ADD12C,0.150000*%
G04 #@! TD*
%ADD13C,0.120000*%
%ADD14C,0.150000*%
G04 APERTURE END LIST*
D10*
X52714828Y-123692457D02*
X53857685Y-123692457D01*
X54571971Y-123692457D02*
X55714828Y-123692457D01*
X56429114Y-124121028D02*
X57571971Y-123692457D01*
X56429114Y-123263885D01*
X61051771Y-160457342D02*
X59908914Y-160457342D01*
X59194628Y-160457342D02*
X58051771Y-160457342D01*
X57337485Y-160028771D02*
X56194628Y-160457342D01*
X57337485Y-160885914D01*
X111165971Y-180853542D02*
X110023114Y-180853542D01*
X109308828Y-180853542D02*
X108165971Y-180853542D01*
X107451685Y-180424971D02*
X106308828Y-180853542D01*
X107451685Y-181282114D01*
X169763771Y-180675742D02*
X168620914Y-180675742D01*
X167906628Y-180675742D02*
X166763771Y-180675742D01*
X166049485Y-180247171D02*
X164906628Y-180675742D01*
X166049485Y-181104314D01*
X216372771Y-180497942D02*
X215229914Y-180497942D01*
X214515628Y-180497942D02*
X213372771Y-180497942D01*
X212658485Y-180069371D02*
X211515628Y-180497942D01*
X212658485Y-180926514D01*
X266182171Y-180421742D02*
X265039314Y-180421742D01*
X264325028Y-180421742D02*
X263182171Y-180421742D01*
X262467885Y-179993171D02*
X261325028Y-180421742D01*
X262467885Y-180850314D01*
X319699971Y-180421742D02*
X318557114Y-180421742D01*
X317842828Y-180421742D02*
X316699971Y-180421742D01*
X315985685Y-179993171D02*
X314842828Y-180421742D01*
X315985685Y-180850314D01*
X369737971Y-180218542D02*
X368595114Y-180218542D01*
X367880828Y-180218542D02*
X366737971Y-180218542D01*
X366023685Y-179789971D02*
X364880828Y-180218542D01*
X366023685Y-180647114D01*
X376458942Y-161096628D02*
X376458942Y-162239485D01*
X376458942Y-162953771D02*
X376458942Y-164096628D01*
X376030371Y-164810914D02*
X376458942Y-165953771D01*
X376887514Y-164810914D01*
X369376628Y-123438457D02*
X370519485Y-123438457D01*
X371233771Y-123438457D02*
X372376628Y-123438457D01*
X373090914Y-123867028D02*
X374233771Y-123438457D01*
X373090914Y-123009885D01*
X346186428Y-102559657D02*
X347329285Y-102559657D01*
X348043571Y-102559657D02*
X349186428Y-102559657D01*
X349900714Y-102988228D02*
X351043571Y-102559657D01*
X349900714Y-102131085D01*
X303997028Y-102483457D02*
X305139885Y-102483457D01*
X305854171Y-102483457D02*
X306997028Y-102483457D01*
X307711314Y-102912028D02*
X308854171Y-102483457D01*
X307711314Y-102054885D01*
X255025828Y-102331057D02*
X256168685Y-102331057D01*
X256882971Y-102331057D02*
X258025828Y-102331057D01*
X258740114Y-102759628D02*
X259882971Y-102331057D01*
X258740114Y-101902485D01*
X214614428Y-102508857D02*
X215757285Y-102508857D01*
X216471571Y-102508857D02*
X217614428Y-102508857D01*
X218328714Y-102937428D02*
X219471571Y-102508857D01*
X218328714Y-102080285D01*
X162620628Y-102483457D02*
X163763485Y-102483457D01*
X164477771Y-102483457D02*
X165620628Y-102483457D01*
X166334914Y-102912028D02*
X167477771Y-102483457D01*
X166334914Y-102054885D01*
X120355028Y-102661257D02*
X121497885Y-102661257D01*
X122212171Y-102661257D02*
X123355028Y-102661257D01*
X124069314Y-103089828D02*
X125212171Y-102661257D01*
X124069314Y-102232685D01*
X89189228Y-102610457D02*
X90332085Y-102610457D01*
X91046371Y-102610457D02*
X92189228Y-102610457D01*
X92903514Y-103039028D02*
X94046371Y-102610457D01*
X92903514Y-102181885D01*
X83546114Y-98493742D02*
X83403257Y-98565171D01*
X83117542Y-98565171D01*
X82974685Y-98493742D01*
X82903257Y-98350885D01*
X82903257Y-98279457D01*
X82974685Y-98136600D01*
X83117542Y-98065171D01*
X83331828Y-98065171D01*
X83474685Y-97993742D01*
X83546114Y-97850885D01*
X83546114Y-97779457D01*
X83474685Y-97636600D01*
X83331828Y-97565171D01*
X83117542Y-97565171D01*
X82974685Y-97636600D01*
X82474685Y-97565171D02*
X81903257Y-97565171D01*
X82260400Y-97065171D02*
X82260400Y-98350885D01*
X82188971Y-98493742D01*
X82046114Y-98565171D01*
X81903257Y-98565171D01*
X80760400Y-98565171D02*
X80760400Y-97779457D01*
X80831828Y-97636600D01*
X80974685Y-97565171D01*
X81260400Y-97565171D01*
X81403257Y-97636600D01*
X80760400Y-98493742D02*
X80903257Y-98565171D01*
X81260400Y-98565171D01*
X81403257Y-98493742D01*
X81474685Y-98350885D01*
X81474685Y-98208028D01*
X81403257Y-98065171D01*
X81260400Y-97993742D01*
X80903257Y-97993742D01*
X80760400Y-97922314D01*
X80046114Y-98565171D02*
X80046114Y-97565171D01*
X80046114Y-97850885D02*
X79974685Y-97708028D01*
X79903257Y-97636600D01*
X79760400Y-97565171D01*
X79617542Y-97565171D01*
X79331828Y-97565171D02*
X78760400Y-97565171D01*
X79117542Y-97065171D02*
X79117542Y-98350885D01*
X79046114Y-98493742D01*
X78903257Y-98565171D01*
X78760400Y-98565171D01*
X77117542Y-98565171D02*
X77117542Y-97065171D01*
X76474685Y-98565171D02*
X76474685Y-97779457D01*
X76546114Y-97636600D01*
X76688971Y-97565171D01*
X76903257Y-97565171D01*
X77046114Y-97636600D01*
X77117542Y-97708028D01*
X75188971Y-98493742D02*
X75331828Y-98565171D01*
X75617542Y-98565171D01*
X75760400Y-98493742D01*
X75831828Y-98350885D01*
X75831828Y-97779457D01*
X75760400Y-97636600D01*
X75617542Y-97565171D01*
X75331828Y-97565171D01*
X75188971Y-97636600D01*
X75117542Y-97779457D01*
X75117542Y-97922314D01*
X75831828Y-98065171D01*
X74474685Y-98565171D02*
X74474685Y-97565171D01*
X74474685Y-97850885D02*
X74403257Y-97708028D01*
X74331828Y-97636600D01*
X74188971Y-97565171D01*
X74046114Y-97565171D01*
X72974685Y-98493742D02*
X73117542Y-98565171D01*
X73403257Y-98565171D01*
X73546114Y-98493742D01*
X73617542Y-98350885D01*
X73617542Y-97779457D01*
X73546114Y-97636600D01*
X73403257Y-97565171D01*
X73117542Y-97565171D01*
X72974685Y-97636600D01*
X72903257Y-97779457D01*
X72903257Y-97922314D01*
X73617542Y-98065171D01*
X70474685Y-98565171D02*
X70474685Y-97779457D01*
X70546114Y-97636600D01*
X70688971Y-97565171D01*
X70974685Y-97565171D01*
X71117542Y-97636600D01*
X70474685Y-98493742D02*
X70617542Y-98565171D01*
X70974685Y-98565171D01*
X71117542Y-98493742D01*
X71188971Y-98350885D01*
X71188971Y-98208028D01*
X71117542Y-98065171D01*
X70974685Y-97993742D01*
X70617542Y-97993742D01*
X70474685Y-97922314D01*
X69760400Y-97565171D02*
X69760400Y-98565171D01*
X69760400Y-97708028D02*
X69688971Y-97636600D01*
X69546114Y-97565171D01*
X69331828Y-97565171D01*
X69188971Y-97636600D01*
X69117542Y-97779457D01*
X69117542Y-98565171D01*
X67760400Y-98565171D02*
X67760400Y-97065171D01*
X67760400Y-98493742D02*
X67903257Y-98565171D01*
X68188971Y-98565171D01*
X68331828Y-98493742D01*
X68403257Y-98422314D01*
X68474685Y-98279457D01*
X68474685Y-97850885D01*
X68403257Y-97708028D01*
X68331828Y-97636600D01*
X68188971Y-97565171D01*
X67903257Y-97565171D01*
X67760400Y-97636600D01*
X102331828Y-100115171D02*
X101760400Y-100115171D01*
X102117542Y-101115171D02*
X102117542Y-99829457D01*
X102046114Y-99686600D01*
X101903257Y-99615171D01*
X101760400Y-99615171D01*
X101046114Y-101115171D02*
X101188971Y-101043742D01*
X101260400Y-100972314D01*
X101331828Y-100829457D01*
X101331828Y-100400885D01*
X101260400Y-100258028D01*
X101188971Y-100186600D01*
X101046114Y-100115171D01*
X100831828Y-100115171D01*
X100688971Y-100186600D01*
X100617542Y-100258028D01*
X100546114Y-100400885D01*
X100546114Y-100829457D01*
X100617542Y-100972314D01*
X100688971Y-101043742D01*
X100831828Y-101115171D01*
X101046114Y-101115171D01*
X99688971Y-101115171D02*
X99831828Y-101043742D01*
X99903257Y-100900885D01*
X99903257Y-99615171D01*
X98903257Y-101115171D02*
X99046114Y-101043742D01*
X99117542Y-100900885D01*
X99117542Y-99615171D01*
X98117542Y-101115171D02*
X98260400Y-101043742D01*
X98331828Y-100972314D01*
X98403257Y-100829457D01*
X98403257Y-100400885D01*
X98331828Y-100258028D01*
X98260400Y-100186600D01*
X98117542Y-100115171D01*
X97903257Y-100115171D01*
X97760400Y-100186600D01*
X97688971Y-100258028D01*
X97617542Y-100400885D01*
X97617542Y-100829457D01*
X97688971Y-100972314D01*
X97760400Y-101043742D01*
X97903257Y-101115171D01*
X98117542Y-101115171D01*
X97117542Y-100115171D02*
X96831828Y-101115171D01*
X96546114Y-100400885D01*
X96260400Y-101115171D01*
X95974685Y-100115171D01*
X94474685Y-100115171D02*
X93903257Y-100115171D01*
X94260400Y-99615171D02*
X94260400Y-100900885D01*
X94188971Y-101043742D01*
X94046114Y-101115171D01*
X93903257Y-101115171D01*
X93403257Y-101115171D02*
X93403257Y-99615171D01*
X92760400Y-101115171D02*
X92760400Y-100329457D01*
X92831828Y-100186600D01*
X92974685Y-100115171D01*
X93188971Y-100115171D01*
X93331828Y-100186600D01*
X93403257Y-100258028D01*
X91474685Y-101043742D02*
X91617542Y-101115171D01*
X91903257Y-101115171D01*
X92046114Y-101043742D01*
X92117542Y-100900885D01*
X92117542Y-100329457D01*
X92046114Y-100186600D01*
X91903257Y-100115171D01*
X91617542Y-100115171D01*
X91474685Y-100186600D01*
X91403257Y-100329457D01*
X91403257Y-100472314D01*
X92117542Y-100615171D01*
X88974685Y-101115171D02*
X88974685Y-100329457D01*
X89046114Y-100186600D01*
X89188971Y-100115171D01*
X89474685Y-100115171D01*
X89617542Y-100186600D01*
X88974685Y-101043742D02*
X89117542Y-101115171D01*
X89474685Y-101115171D01*
X89617542Y-101043742D01*
X89688971Y-100900885D01*
X89688971Y-100758028D01*
X89617542Y-100615171D01*
X89474685Y-100543742D01*
X89117542Y-100543742D01*
X88974685Y-100472314D01*
X88260400Y-101115171D02*
X88260400Y-100115171D01*
X88260400Y-100400885D02*
X88188971Y-100258028D01*
X88117542Y-100186600D01*
X87974685Y-100115171D01*
X87831828Y-100115171D01*
X87331828Y-101115171D02*
X87331828Y-100115171D01*
X87331828Y-100400885D02*
X87260400Y-100258028D01*
X87188971Y-100186600D01*
X87046114Y-100115171D01*
X86903257Y-100115171D01*
X86188971Y-101115171D02*
X86331828Y-101043742D01*
X86403257Y-100972314D01*
X86474685Y-100829457D01*
X86474685Y-100400885D01*
X86403257Y-100258028D01*
X86331828Y-100186600D01*
X86188971Y-100115171D01*
X85974685Y-100115171D01*
X85831828Y-100186600D01*
X85760400Y-100258028D01*
X85688971Y-100400885D01*
X85688971Y-100829457D01*
X85760400Y-100972314D01*
X85831828Y-101043742D01*
X85974685Y-101115171D01*
X86188971Y-101115171D01*
X85188971Y-100115171D02*
X84903257Y-101115171D01*
X84617542Y-100400885D01*
X84331828Y-101115171D01*
X84046114Y-100115171D01*
X82546114Y-100115171D02*
X81974685Y-100115171D01*
X82331828Y-101115171D02*
X82331828Y-99829457D01*
X82260400Y-99686600D01*
X82117542Y-99615171D01*
X81974685Y-99615171D01*
X81260400Y-101115171D02*
X81403257Y-101043742D01*
X81474685Y-100972314D01*
X81546114Y-100829457D01*
X81546114Y-100400885D01*
X81474685Y-100258028D01*
X81403257Y-100186600D01*
X81260400Y-100115171D01*
X81046114Y-100115171D01*
X80903257Y-100186600D01*
X80831828Y-100258028D01*
X80760400Y-100400885D01*
X80760400Y-100829457D01*
X80831828Y-100972314D01*
X80903257Y-101043742D01*
X81046114Y-101115171D01*
X81260400Y-101115171D01*
X80117542Y-101115171D02*
X80117542Y-100115171D01*
X80117542Y-100400885D02*
X80046114Y-100258028D01*
X79974685Y-100186600D01*
X79831828Y-100115171D01*
X79688971Y-100115171D01*
X77831828Y-101115171D02*
X77974685Y-101043742D01*
X78046114Y-100972314D01*
X78117542Y-100829457D01*
X78117542Y-100400885D01*
X78046114Y-100258028D01*
X77974685Y-100186600D01*
X77831828Y-100115171D01*
X77617542Y-100115171D01*
X77474685Y-100186600D01*
X77403257Y-100258028D01*
X77331828Y-100400885D01*
X77331828Y-100829457D01*
X77403257Y-100972314D01*
X77474685Y-101043742D01*
X77617542Y-101115171D01*
X77831828Y-101115171D01*
X76688971Y-101115171D02*
X76688971Y-100115171D01*
X76688971Y-100400885D02*
X76617542Y-100258028D01*
X76546114Y-100186600D01*
X76403257Y-100115171D01*
X76260400Y-100115171D01*
X75760400Y-101115171D02*
X75760400Y-100115171D01*
X75760400Y-99615171D02*
X75831828Y-99686600D01*
X75760400Y-99758028D01*
X75688971Y-99686600D01*
X75760400Y-99615171D01*
X75760400Y-99758028D01*
X74474685Y-101043742D02*
X74617542Y-101115171D01*
X74903257Y-101115171D01*
X75046114Y-101043742D01*
X75117542Y-100900885D01*
X75117542Y-100329457D01*
X75046114Y-100186600D01*
X74903257Y-100115171D01*
X74617542Y-100115171D01*
X74474685Y-100186600D01*
X74403257Y-100329457D01*
X74403257Y-100472314D01*
X75117542Y-100615171D01*
X73760400Y-100115171D02*
X73760400Y-101115171D01*
X73760400Y-100258028D02*
X73688971Y-100186600D01*
X73546114Y-100115171D01*
X73331828Y-100115171D01*
X73188971Y-100186600D01*
X73117542Y-100329457D01*
X73117542Y-101115171D01*
X72617542Y-100115171D02*
X72046114Y-100115171D01*
X72403257Y-99615171D02*
X72403257Y-100900885D01*
X72331828Y-101043742D01*
X72188971Y-101115171D01*
X72046114Y-101115171D01*
X70903257Y-101115171D02*
X70903257Y-100329457D01*
X70974685Y-100186600D01*
X71117542Y-100115171D01*
X71403257Y-100115171D01*
X71546114Y-100186600D01*
X70903257Y-101043742D02*
X71046114Y-101115171D01*
X71403257Y-101115171D01*
X71546114Y-101043742D01*
X71617542Y-100900885D01*
X71617542Y-100758028D01*
X71546114Y-100615171D01*
X71403257Y-100543742D01*
X71046114Y-100543742D01*
X70903257Y-100472314D01*
X70403257Y-100115171D02*
X69831828Y-100115171D01*
X70188971Y-99615171D02*
X70188971Y-100900885D01*
X70117542Y-101043742D01*
X69974685Y-101115171D01*
X69831828Y-101115171D01*
X69331828Y-101115171D02*
X69331828Y-100115171D01*
X69331828Y-99615171D02*
X69403257Y-99686600D01*
X69331828Y-99758028D01*
X69260400Y-99686600D01*
X69331828Y-99615171D01*
X69331828Y-99758028D01*
X68403257Y-101115171D02*
X68546114Y-101043742D01*
X68617542Y-100972314D01*
X68688971Y-100829457D01*
X68688971Y-100400885D01*
X68617542Y-100258028D01*
X68546114Y-100186600D01*
X68403257Y-100115171D01*
X68188971Y-100115171D01*
X68046114Y-100186600D01*
X67974685Y-100258028D01*
X67903257Y-100400885D01*
X67903257Y-100829457D01*
X67974685Y-100972314D01*
X68046114Y-101043742D01*
X68188971Y-101115171D01*
X68403257Y-101115171D01*
X67260400Y-100115171D02*
X67260400Y-101115171D01*
X67260400Y-100258028D02*
X67188971Y-100186600D01*
X67046114Y-100115171D01*
X66831828Y-100115171D01*
X66688971Y-100186600D01*
X66617542Y-100329457D01*
X66617542Y-101115171D01*
D11*
X61841371Y-97095571D02*
X62555657Y-97095571D01*
X62627085Y-97809857D01*
X62555657Y-97738428D01*
X62412800Y-97667000D01*
X62055657Y-97667000D01*
X61912800Y-97738428D01*
X61841371Y-97809857D01*
X61769942Y-97952714D01*
X61769942Y-98309857D01*
X61841371Y-98452714D01*
X61912800Y-98524142D01*
X62055657Y-98595571D01*
X62412800Y-98595571D01*
X62555657Y-98524142D01*
X62627085Y-98452714D01*
X61127085Y-98024142D02*
X59984228Y-98024142D01*
X60555657Y-98595571D02*
X60555657Y-97452714D01*
X59484228Y-97095571D02*
X58984228Y-98595571D01*
X58484228Y-97095571D01*
X62581057Y-101160971D02*
X62581057Y-99660971D01*
X62223914Y-99660971D01*
X62009628Y-99732400D01*
X61866771Y-99875257D01*
X61795342Y-100018114D01*
X61723914Y-100303828D01*
X61723914Y-100518114D01*
X61795342Y-100803828D01*
X61866771Y-100946685D01*
X62009628Y-101089542D01*
X62223914Y-101160971D01*
X62581057Y-101160971D01*
X61081057Y-101160971D02*
X61081057Y-99660971D01*
X60366771Y-101160971D02*
X60366771Y-99660971D01*
X59509628Y-101160971D01*
X59509628Y-99660971D01*
X61896942Y-102247000D02*
X62039800Y-102175571D01*
X62254085Y-102175571D01*
X62468371Y-102247000D01*
X62611228Y-102389857D01*
X62682657Y-102532714D01*
X62754085Y-102818428D01*
X62754085Y-103032714D01*
X62682657Y-103318428D01*
X62611228Y-103461285D01*
X62468371Y-103604142D01*
X62254085Y-103675571D01*
X62111228Y-103675571D01*
X61896942Y-103604142D01*
X61825514Y-103532714D01*
X61825514Y-103032714D01*
X62111228Y-103032714D01*
X61182657Y-103675571D02*
X61182657Y-102175571D01*
X60325514Y-103675571D01*
X60325514Y-102175571D01*
X59611228Y-103675571D02*
X59611228Y-102175571D01*
X59254085Y-102175571D01*
X59039800Y-102247000D01*
X58896942Y-102389857D01*
X58825514Y-102532714D01*
X58754085Y-102818428D01*
X58754085Y-103032714D01*
X58825514Y-103318428D01*
X58896942Y-103461285D01*
X59039800Y-103604142D01*
X59254085Y-103675571D01*
X59611228Y-103675571D01*
D12*
X384809999Y-198619941D02*
G75*
G02*
X381505940Y-201930000I-3307059J-3000D01*
G01*
X381499941Y-55313501D02*
G75*
G02*
X384810000Y-58617560I3000J-3307059D01*
G01*
X37147501Y-58623559D02*
G75*
G02*
X40451560Y-55313500I3307059J3000D01*
G01*
X40457559Y-201929999D02*
G75*
G02*
X37147500Y-198625940I-3000J3307059D01*
G01*
X384810000Y-58617560D02*
X384809999Y-198619941D01*
X381505940Y-201930000D02*
X40457559Y-201929999D01*
X37147500Y-198625940D02*
X37147501Y-58623559D01*
X40451560Y-55313500D02*
X381499941Y-55313500D01*
D13*
X285977000Y-68273664D02*
X285977000Y-67819536D01*
X284507000Y-68273664D02*
X284507000Y-67819536D01*
D14*
X307302680Y-195699920D02*
X311302680Y-195699920D01*
X306702680Y-199199920D02*
X306702680Y-196249920D01*
X314302680Y-199199920D02*
X306702680Y-199199920D01*
X316502680Y-193199920D02*
X316502680Y-196999920D01*
X313652680Y-193199920D02*
X316502680Y-193199920D01*
X313302679Y-193899919D02*
G75*
G02*
X311302680Y-195699920I-1900000J99999D01*
G01*
X307302680Y-195699920D02*
G75*
G03*
X306702680Y-196249920I-25000J-575000D01*
G01*
X314302680Y-199199920D02*
G75*
G03*
X316502680Y-196999920I0J2200000D01*
G01*
X313652680Y-193199920D02*
G75*
G03*
X313302680Y-193749920I100000J-450000D01*
G01*
X312320160Y-189099920D02*
X308320160Y-189099920D01*
X312920160Y-185599920D02*
X312920160Y-188549920D01*
X305320160Y-185599920D02*
X312920160Y-185599920D01*
X303120160Y-191599920D02*
X303120160Y-187799920D01*
X305970160Y-191599920D02*
X303120160Y-191599920D01*
X306320161Y-190899921D02*
G75*
G02*
X308320160Y-189099920I1900000J-99999D01*
G01*
X312320160Y-189099920D02*
G75*
G03*
X312920160Y-188549920I25000J575000D01*
G01*
X305320160Y-185599920D02*
G75*
G03*
X303120160Y-187799920I0J-2200000D01*
G01*
X305970160Y-191599920D02*
G75*
G03*
X306320160Y-191049920I-100000J450000D01*
G01*
X288507660Y-189099920D02*
X284507660Y-189099920D01*
X289107660Y-185599920D02*
X289107660Y-188549920D01*
X281507660Y-185599920D02*
X289107660Y-185599920D01*
X279307660Y-191599920D02*
X279307660Y-187799920D01*
X282157660Y-191599920D02*
X279307660Y-191599920D01*
X282507661Y-190899921D02*
G75*
G02*
X284507660Y-189099920I1900000J-99999D01*
G01*
X288507660Y-189099920D02*
G75*
G03*
X289107660Y-188549920I25000J575000D01*
G01*
X281507660Y-185599920D02*
G75*
G03*
X279307660Y-187799920I0J-2200000D01*
G01*
X282157660Y-191599920D02*
G75*
G03*
X282507660Y-191049920I-100000J450000D01*
G01*
X283488910Y-195699920D02*
X287488910Y-195699920D01*
X282888910Y-199199920D02*
X282888910Y-196249920D01*
X290488910Y-199199920D02*
X282888910Y-199199920D01*
X292688910Y-193199920D02*
X292688910Y-196999920D01*
X289838910Y-193199920D02*
X292688910Y-193199920D01*
X289488909Y-193899919D02*
G75*
G02*
X287488910Y-195699920I-1900000J99999D01*
G01*
X283488910Y-195699920D02*
G75*
G03*
X282888910Y-196249920I-25000J-575000D01*
G01*
X290488910Y-199199920D02*
G75*
G03*
X292688910Y-196999920I0J2200000D01*
G01*
X289838910Y-193199920D02*
G75*
G03*
X289488910Y-193749920I100000J-450000D01*
G01*
X259676410Y-195699920D02*
X263676410Y-195699920D01*
X259076410Y-199199920D02*
X259076410Y-196249920D01*
X266676410Y-199199920D02*
X259076410Y-199199920D01*
X268876410Y-193199920D02*
X268876410Y-196999920D01*
X266026410Y-193199920D02*
X268876410Y-193199920D01*
X265676409Y-193899919D02*
G75*
G02*
X263676410Y-195699920I-1900000J99999D01*
G01*
X259676410Y-195699920D02*
G75*
G03*
X259076410Y-196249920I-25000J-575000D01*
G01*
X266676410Y-199199920D02*
G75*
G03*
X268876410Y-196999920I0J2200000D01*
G01*
X266026410Y-193199920D02*
G75*
G03*
X265676410Y-193749920I100000J-450000D01*
G01*
X264695160Y-189099920D02*
X260695160Y-189099920D01*
X265295160Y-185599920D02*
X265295160Y-188549920D01*
X257695160Y-185599920D02*
X265295160Y-185599920D01*
X255495160Y-191599920D02*
X255495160Y-187799920D01*
X258345160Y-191599920D02*
X255495160Y-191599920D01*
X258695161Y-190899921D02*
G75*
G02*
X260695160Y-189099920I1900000J-99999D01*
G01*
X264695160Y-189099920D02*
G75*
G03*
X265295160Y-188549920I25000J575000D01*
G01*
X257695160Y-185599920D02*
G75*
G03*
X255495160Y-187799920I0J-2200000D01*
G01*
X258345160Y-191599920D02*
G75*
G03*
X258695160Y-191049920I-100000J450000D01*
G01*
X243263910Y-189099920D02*
X239263910Y-189099920D01*
X243863910Y-185599920D02*
X243863910Y-188549920D01*
X236263910Y-185599920D02*
X243863910Y-185599920D01*
X234063910Y-191599920D02*
X234063910Y-187799920D01*
X236913910Y-191599920D02*
X234063910Y-191599920D01*
X237263911Y-190899921D02*
G75*
G02*
X239263910Y-189099920I1900000J-99999D01*
G01*
X243263910Y-189099920D02*
G75*
G03*
X243863910Y-188549920I25000J575000D01*
G01*
X236263910Y-185599920D02*
G75*
G03*
X234063910Y-187799920I0J-2200000D01*
G01*
X236913910Y-191599920D02*
G75*
G03*
X237263910Y-191049920I-100000J450000D01*
G01*
X176332660Y-195699920D02*
X180332660Y-195699920D01*
X175732660Y-199199920D02*
X175732660Y-196249920D01*
X183332660Y-199199920D02*
X175732660Y-199199920D01*
X185532660Y-193199920D02*
X185532660Y-196999920D01*
X182682660Y-193199920D02*
X185532660Y-193199920D01*
X182332659Y-193899919D02*
G75*
G02*
X180332660Y-195699920I-1900000J99999D01*
G01*
X176332660Y-195699920D02*
G75*
G03*
X175732660Y-196249920I-25000J-575000D01*
G01*
X183332660Y-199199920D02*
G75*
G03*
X185532660Y-196999920I0J2200000D01*
G01*
X182682660Y-193199920D02*
G75*
G03*
X182332660Y-193749920I100000J-450000D01*
G01*
X171826600Y-188724000D02*
X167826600Y-188724000D01*
X172426600Y-185224000D02*
X172426600Y-188174000D01*
X164826600Y-185224000D02*
X172426600Y-185224000D01*
X162626600Y-191224000D02*
X162626600Y-187424000D01*
X165476600Y-191224000D02*
X162626600Y-191224000D01*
X165826601Y-190524001D02*
G75*
G02*
X167826600Y-188724000I1900000J-99999D01*
G01*
X171826600Y-188724000D02*
G75*
G03*
X172426600Y-188174000I25000J575000D01*
G01*
X164826600Y-185224000D02*
G75*
G03*
X162626600Y-187424000I0J-2200000D01*
G01*
X165476600Y-191224000D02*
G75*
G03*
X165826600Y-190674000I-100000J450000D01*
G01*
X100388910Y-189099920D02*
X96388910Y-189099920D01*
X100988910Y-185599920D02*
X100988910Y-188549920D01*
X93388910Y-185599920D02*
X100988910Y-185599920D01*
X91188910Y-191599920D02*
X91188910Y-187799920D01*
X94038910Y-191599920D02*
X91188910Y-191599920D01*
X94388911Y-190899921D02*
G75*
G02*
X96388910Y-189099920I1900000J-99999D01*
G01*
X100388910Y-189099920D02*
G75*
G03*
X100988910Y-188549920I25000J575000D01*
G01*
X93388910Y-185599920D02*
G75*
G03*
X91188910Y-187799920I0J-2200000D01*
G01*
X94038910Y-191599920D02*
G75*
G03*
X94388910Y-191049920I-100000J450000D01*
G01*
X95370160Y-195699920D02*
X99370160Y-195699920D01*
X94770160Y-199199920D02*
X94770160Y-196249920D01*
X102370160Y-199199920D02*
X94770160Y-199199920D01*
X104570160Y-193199920D02*
X104570160Y-196999920D01*
X101720160Y-193199920D02*
X104570160Y-193199920D01*
X101370159Y-193899919D02*
G75*
G02*
X99370160Y-195699920I-1900000J99999D01*
G01*
X95370160Y-195699920D02*
G75*
G03*
X94770160Y-196249920I-25000J-575000D01*
G01*
X102370160Y-199199920D02*
G75*
G03*
X104570160Y-196999920I0J2200000D01*
G01*
X101720160Y-193199920D02*
G75*
G03*
X101370160Y-193749920I100000J-450000D01*
G01*
X71557660Y-195699920D02*
X75557660Y-195699920D01*
X70957660Y-199199920D02*
X70957660Y-196249920D01*
X78557660Y-199199920D02*
X70957660Y-199199920D01*
X80757660Y-193199920D02*
X80757660Y-196999920D01*
X77907660Y-193199920D02*
X80757660Y-193199920D01*
X77557659Y-193899919D02*
G75*
G02*
X75557660Y-195699920I-1900000J99999D01*
G01*
X71557660Y-195699920D02*
G75*
G03*
X70957660Y-196249920I-25000J-575000D01*
G01*
X78557660Y-199199920D02*
G75*
G03*
X80757660Y-196999920I0J2200000D01*
G01*
X77907660Y-193199920D02*
G75*
G03*
X77557660Y-193749920I100000J-450000D01*
G01*
X76576410Y-189099920D02*
X72576410Y-189099920D01*
X77176410Y-185599920D02*
X77176410Y-188549920D01*
X69576410Y-185599920D02*
X77176410Y-185599920D01*
X67376410Y-191599920D02*
X67376410Y-187799920D01*
X70226410Y-191599920D02*
X67376410Y-191599920D01*
X70576411Y-190899921D02*
G75*
G02*
X72576410Y-189099920I1900000J-99999D01*
G01*
X76576410Y-189099920D02*
G75*
G03*
X77176410Y-188549920I25000J575000D01*
G01*
X69576410Y-185599920D02*
G75*
G03*
X67376410Y-187799920I0J-2200000D01*
G01*
X70226410Y-191599920D02*
G75*
G03*
X70576410Y-191049920I-100000J450000D01*
G01*
X52758830Y-189099920D02*
X48758830Y-189099920D01*
X53358830Y-185599920D02*
X53358830Y-188549920D01*
X45758830Y-185599920D02*
X53358830Y-185599920D01*
X43558830Y-191599920D02*
X43558830Y-187799920D01*
X46408830Y-191599920D02*
X43558830Y-191599920D01*
X46758831Y-190899921D02*
G75*
G02*
X48758830Y-189099920I1900000J-99999D01*
G01*
X52758830Y-189099920D02*
G75*
G03*
X53358830Y-188549920I25000J575000D01*
G01*
X45758830Y-185599920D02*
G75*
G03*
X43558830Y-187799920I0J-2200000D01*
G01*
X46408830Y-191599920D02*
G75*
G03*
X46758830Y-191049920I-100000J450000D01*
G01*
X47740080Y-195699920D02*
X51740080Y-195699920D01*
X47140080Y-199199920D02*
X47140080Y-196249920D01*
X54740080Y-199199920D02*
X47140080Y-199199920D01*
X56940080Y-193199920D02*
X56940080Y-196999920D01*
X54090080Y-193199920D02*
X56940080Y-193199920D01*
X53740079Y-193899919D02*
G75*
G02*
X51740080Y-195699920I-1900000J99999D01*
G01*
X47740080Y-195699920D02*
G75*
G03*
X47140080Y-196249920I-25000J-575000D01*
G01*
X54740080Y-199199920D02*
G75*
G03*
X56940080Y-196999920I0J2200000D01*
G01*
X54090080Y-193199920D02*
G75*
G03*
X53740080Y-193749920I100000J-450000D01*
G01*
X177385200Y-115392300D02*
X174535200Y-115392300D01*
X174535200Y-115392300D02*
X174535200Y-111592300D01*
X176735200Y-109392300D02*
X184335200Y-109392300D01*
X184335200Y-109392300D02*
X184335200Y-112342300D01*
X183735200Y-112892300D02*
X179735200Y-112892300D01*
X177735201Y-114692301D02*
G75*
G02*
X179735200Y-112892300I1900000J-99999D01*
G01*
X183735200Y-112892300D02*
G75*
G03*
X184335200Y-112342300I25000J575000D01*
G01*
X176735200Y-109392300D02*
G75*
G03*
X174535200Y-111592300I0J-2200000D01*
G01*
X177385200Y-115392300D02*
G75*
G03*
X177735200Y-114842300I-100000J450000D01*
G01*
X82135200Y-115392300D02*
X79285200Y-115392300D01*
X79285200Y-115392300D02*
X79285200Y-111592300D01*
X81485200Y-109392300D02*
X89085200Y-109392300D01*
X89085200Y-109392300D02*
X89085200Y-112342300D01*
X88485200Y-112892300D02*
X84485200Y-112892300D01*
X82485201Y-114692301D02*
G75*
G02*
X84485200Y-112892300I1900000J-99999D01*
G01*
X88485200Y-112892300D02*
G75*
G03*
X89085200Y-112342300I25000J575000D01*
G01*
X81485200Y-109392300D02*
G75*
G03*
X79285200Y-111592300I0J-2200000D01*
G01*
X82135200Y-115392300D02*
G75*
G03*
X82485200Y-114842300I-100000J450000D01*
G01*
X139277580Y-91582340D02*
X136427580Y-91582340D01*
X136427580Y-91582340D02*
X136427580Y-87782340D01*
X138627580Y-85582340D02*
X146227580Y-85582340D01*
X146227580Y-85582340D02*
X146227580Y-88532340D01*
X145627580Y-89082340D02*
X141627580Y-89082340D01*
X139627581Y-90882341D02*
G75*
G02*
X141627580Y-89082340I1900000J-99999D01*
G01*
X145627580Y-89082340D02*
G75*
G03*
X146227580Y-88532340I25000J575000D01*
G01*
X138627580Y-85582340D02*
G75*
G03*
X136427580Y-87782340I0J-2200000D01*
G01*
X139277580Y-91582340D02*
G75*
G03*
X139627580Y-91032340I-100000J450000D01*
G01*
X120235200Y-91579800D02*
X117385200Y-91579800D01*
X117385200Y-91579800D02*
X117385200Y-87779800D01*
X119585200Y-85579800D02*
X127185200Y-85579800D01*
X127185200Y-85579800D02*
X127185200Y-88529800D01*
X126585200Y-89079800D02*
X122585200Y-89079800D01*
X120585201Y-90879801D02*
G75*
G02*
X122585200Y-89079800I1900000J-99999D01*
G01*
X126585200Y-89079800D02*
G75*
G03*
X127185200Y-88529800I25000J575000D01*
G01*
X119585200Y-85579800D02*
G75*
G03*
X117385200Y-87779800I0J-2200000D01*
G01*
X120235200Y-91579800D02*
G75*
G03*
X120585200Y-91029800I-100000J450000D01*
G01*
X372645160Y-191605000D02*
X369795160Y-191605000D01*
X369795160Y-191605000D02*
X369795160Y-187805000D01*
X371995160Y-185605000D02*
X379595160Y-185605000D01*
X379595160Y-185605000D02*
X379595160Y-188555000D01*
X378995160Y-189105000D02*
X374995160Y-189105000D01*
X372995161Y-190905001D02*
G75*
G02*
X374995160Y-189105000I1900000J-99999D01*
G01*
X378995160Y-189105000D02*
G75*
G03*
X379595160Y-188555000I25000J575000D01*
G01*
X371995160Y-185605000D02*
G75*
G03*
X369795160Y-187805000I0J-2200000D01*
G01*
X372645160Y-191605000D02*
G75*
G03*
X372995160Y-191055000I-100000J450000D01*
G01*
X353585000Y-191605000D02*
X350735000Y-191605000D01*
X350735000Y-191605000D02*
X350735000Y-187805000D01*
X352935000Y-185605000D02*
X360535000Y-185605000D01*
X360535000Y-185605000D02*
X360535000Y-188555000D01*
X359935000Y-189105000D02*
X355935000Y-189105000D01*
X353935001Y-190905001D02*
G75*
G02*
X355935000Y-189105000I1900000J-99999D01*
G01*
X359935000Y-189105000D02*
G75*
G03*
X360535000Y-188555000I25000J575000D01*
G01*
X352935000Y-185605000D02*
G75*
G03*
X350735000Y-187805000I0J-2200000D01*
G01*
X353585000Y-191605000D02*
G75*
G03*
X353935000Y-191055000I-100000J450000D01*
G01*
X334535000Y-191605000D02*
X331685000Y-191605000D01*
X331685000Y-191605000D02*
X331685000Y-187805000D01*
X333885000Y-185605000D02*
X341485000Y-185605000D01*
X341485000Y-185605000D02*
X341485000Y-188555000D01*
X340885000Y-189105000D02*
X336885000Y-189105000D01*
X334885001Y-190905001D02*
G75*
G02*
X336885000Y-189105000I1900000J-99999D01*
G01*
X340885000Y-189105000D02*
G75*
G03*
X341485000Y-188555000I25000J575000D01*
G01*
X333885000Y-185605000D02*
G75*
G03*
X331685000Y-187805000I0J-2200000D01*
G01*
X334535000Y-191605000D02*
G75*
G03*
X334885000Y-191055000I-100000J450000D01*
G01*
X55928750Y-172555000D02*
X53078750Y-172555000D01*
X53078750Y-172555000D02*
X53078750Y-168755000D01*
X55278750Y-166555000D02*
X62878750Y-166555000D01*
X62878750Y-166555000D02*
X62878750Y-169505000D01*
X62278750Y-170055000D02*
X58278750Y-170055000D01*
X56278751Y-171855001D02*
G75*
G02*
X58278750Y-170055000I1900000J-99999D01*
G01*
X62278750Y-170055000D02*
G75*
G03*
X62878750Y-169505000I25000J575000D01*
G01*
X55278750Y-166555000D02*
G75*
G03*
X53078750Y-168755000I0J-2200000D01*
G01*
X55928750Y-172555000D02*
G75*
G03*
X56278750Y-172005000I-100000J450000D01*
G01*
X294053750Y-172561350D02*
X291203750Y-172561350D01*
X291203750Y-172561350D02*
X291203750Y-168761350D01*
X293403750Y-166561350D02*
X301003750Y-166561350D01*
X301003750Y-166561350D02*
X301003750Y-169511350D01*
X300403750Y-170061350D02*
X296403750Y-170061350D01*
X294403751Y-171861351D02*
G75*
G02*
X296403750Y-170061350I1900000J-99999D01*
G01*
X300403750Y-170061350D02*
G75*
G03*
X301003750Y-169511350I25000J575000D01*
G01*
X293403750Y-166561350D02*
G75*
G03*
X291203750Y-168761350I0J-2200000D01*
G01*
X294053750Y-172561350D02*
G75*
G03*
X294403750Y-172011350I-100000J450000D01*
G01*
X298816250Y-153505000D02*
X295966250Y-153505000D01*
X295966250Y-153505000D02*
X295966250Y-149705000D01*
X298166250Y-147505000D02*
X305766250Y-147505000D01*
X305766250Y-147505000D02*
X305766250Y-150455000D01*
X305166250Y-151005000D02*
X301166250Y-151005000D01*
X299166251Y-152805001D02*
G75*
G02*
X301166250Y-151005000I1900000J-99999D01*
G01*
X305166250Y-151005000D02*
G75*
G03*
X305766250Y-150455000I25000J575000D01*
G01*
X298166250Y-147505000D02*
G75*
G03*
X295966250Y-149705000I0J-2200000D01*
G01*
X298816250Y-153505000D02*
G75*
G03*
X299166250Y-152955000I-100000J450000D01*
G01*
X301210200Y-115392300D02*
X298360200Y-115392300D01*
X298360200Y-115392300D02*
X298360200Y-111592300D01*
X300560200Y-109392300D02*
X308160200Y-109392300D01*
X308160200Y-109392300D02*
X308160200Y-112342300D01*
X307560200Y-112892300D02*
X303560200Y-112892300D01*
X301560201Y-114692301D02*
G75*
G02*
X303560200Y-112892300I1900000J-99999D01*
G01*
X307560200Y-112892300D02*
G75*
G03*
X308160200Y-112342300I25000J575000D01*
G01*
X300560200Y-109392300D02*
G75*
G03*
X298360200Y-111592300I0J-2200000D01*
G01*
X301210200Y-115392300D02*
G75*
G03*
X301560200Y-114842300I-100000J450000D01*
G01*
X353585000Y-172542300D02*
X350735000Y-172542300D01*
X350735000Y-172542300D02*
X350735000Y-168742300D01*
X352935000Y-166542300D02*
X360535000Y-166542300D01*
X360535000Y-166542300D02*
X360535000Y-169492300D01*
X359935000Y-170042300D02*
X355935000Y-170042300D01*
X353935001Y-171842301D02*
G75*
G02*
X355935000Y-170042300I1900000J-99999D01*
G01*
X359935000Y-170042300D02*
G75*
G03*
X360535000Y-169492300I25000J575000D01*
G01*
X352935000Y-166542300D02*
G75*
G03*
X350735000Y-168742300I0J-2200000D01*
G01*
X353585000Y-172542300D02*
G75*
G03*
X353935000Y-171992300I-100000J450000D01*
G01*
X258335000Y-172555000D02*
X255485000Y-172555000D01*
X255485000Y-172555000D02*
X255485000Y-168755000D01*
X257685000Y-166555000D02*
X265285000Y-166555000D01*
X265285000Y-166555000D02*
X265285000Y-169505000D01*
X264685000Y-170055000D02*
X260685000Y-170055000D01*
X258685001Y-171855001D02*
G75*
G02*
X260685000Y-170055000I1900000J-99999D01*
G01*
X264685000Y-170055000D02*
G75*
G03*
X265285000Y-169505000I25000J575000D01*
G01*
X257685000Y-166555000D02*
G75*
G03*
X255485000Y-168755000I0J-2200000D01*
G01*
X258335000Y-172555000D02*
G75*
G03*
X258685000Y-172005000I-100000J450000D01*
G01*
X239285000Y-172555000D02*
X236435000Y-172555000D01*
X236435000Y-172555000D02*
X236435000Y-168755000D01*
X238635000Y-166555000D02*
X246235000Y-166555000D01*
X246235000Y-166555000D02*
X246235000Y-169505000D01*
X245635000Y-170055000D02*
X241635000Y-170055000D01*
X239635001Y-171855001D02*
G75*
G02*
X241635000Y-170055000I1900000J-99999D01*
G01*
X245635000Y-170055000D02*
G75*
G03*
X246235000Y-169505000I25000J575000D01*
G01*
X238635000Y-166555000D02*
G75*
G03*
X236435000Y-168755000I0J-2200000D01*
G01*
X239285000Y-172555000D02*
G75*
G03*
X239635000Y-172005000I-100000J450000D01*
G01*
X220235000Y-172555000D02*
X217385000Y-172555000D01*
X217385000Y-172555000D02*
X217385000Y-168755000D01*
X219585000Y-166555000D02*
X227185000Y-166555000D01*
X227185000Y-166555000D02*
X227185000Y-169505000D01*
X226585000Y-170055000D02*
X222585000Y-170055000D01*
X220585001Y-171855001D02*
G75*
G02*
X222585000Y-170055000I1900000J-99999D01*
G01*
X226585000Y-170055000D02*
G75*
G03*
X227185000Y-169505000I25000J575000D01*
G01*
X219585000Y-166555000D02*
G75*
G03*
X217385000Y-168755000I0J-2200000D01*
G01*
X220235000Y-172555000D02*
G75*
G03*
X220585000Y-172005000I-100000J450000D01*
G01*
X201185000Y-172555000D02*
X198335000Y-172555000D01*
X198335000Y-172555000D02*
X198335000Y-168755000D01*
X200535000Y-166555000D02*
X208135000Y-166555000D01*
X208135000Y-166555000D02*
X208135000Y-169505000D01*
X207535000Y-170055000D02*
X203535000Y-170055000D01*
X201535001Y-171855001D02*
G75*
G02*
X203535000Y-170055000I1900000J-99999D01*
G01*
X207535000Y-170055000D02*
G75*
G03*
X208135000Y-169505000I25000J575000D01*
G01*
X200535000Y-166555000D02*
G75*
G03*
X198335000Y-168755000I0J-2200000D01*
G01*
X201185000Y-172555000D02*
G75*
G03*
X201535000Y-172005000I-100000J450000D01*
G01*
X182135000Y-172555000D02*
X179285000Y-172555000D01*
X179285000Y-172555000D02*
X179285000Y-168755000D01*
X181485000Y-166555000D02*
X189085000Y-166555000D01*
X189085000Y-166555000D02*
X189085000Y-169505000D01*
X188485000Y-170055000D02*
X184485000Y-170055000D01*
X182485001Y-171855001D02*
G75*
G02*
X184485000Y-170055000I1900000J-99999D01*
G01*
X188485000Y-170055000D02*
G75*
G03*
X189085000Y-169505000I25000J575000D01*
G01*
X181485000Y-166555000D02*
G75*
G03*
X179285000Y-168755000I0J-2200000D01*
G01*
X182135000Y-172555000D02*
G75*
G03*
X182485000Y-172005000I-100000J450000D01*
G01*
X163085000Y-172555000D02*
X160235000Y-172555000D01*
X160235000Y-172555000D02*
X160235000Y-168755000D01*
X162435000Y-166555000D02*
X170035000Y-166555000D01*
X170035000Y-166555000D02*
X170035000Y-169505000D01*
X169435000Y-170055000D02*
X165435000Y-170055000D01*
X163435001Y-171855001D02*
G75*
G02*
X165435000Y-170055000I1900000J-99999D01*
G01*
X169435000Y-170055000D02*
G75*
G03*
X170035000Y-169505000I25000J575000D01*
G01*
X162435000Y-166555000D02*
G75*
G03*
X160235000Y-168755000I0J-2200000D01*
G01*
X163085000Y-172555000D02*
G75*
G03*
X163435000Y-172005000I-100000J450000D01*
G01*
X144035000Y-172555000D02*
X141185000Y-172555000D01*
X141185000Y-172555000D02*
X141185000Y-168755000D01*
X143385000Y-166555000D02*
X150985000Y-166555000D01*
X150985000Y-166555000D02*
X150985000Y-169505000D01*
X150385000Y-170055000D02*
X146385000Y-170055000D01*
X144385001Y-171855001D02*
G75*
G02*
X146385000Y-170055000I1900000J-99999D01*
G01*
X150385000Y-170055000D02*
G75*
G03*
X150985000Y-169505000I25000J575000D01*
G01*
X143385000Y-166555000D02*
G75*
G03*
X141185000Y-168755000I0J-2200000D01*
G01*
X144035000Y-172555000D02*
G75*
G03*
X144385000Y-172005000I-100000J450000D01*
G01*
X124985000Y-172555000D02*
X122135000Y-172555000D01*
X122135000Y-172555000D02*
X122135000Y-168755000D01*
X124335000Y-166555000D02*
X131935000Y-166555000D01*
X131935000Y-166555000D02*
X131935000Y-169505000D01*
X131335000Y-170055000D02*
X127335000Y-170055000D01*
X125335001Y-171855001D02*
G75*
G02*
X127335000Y-170055000I1900000J-99999D01*
G01*
X131335000Y-170055000D02*
G75*
G03*
X131935000Y-169505000I25000J575000D01*
G01*
X124335000Y-166555000D02*
G75*
G03*
X122135000Y-168755000I0J-2200000D01*
G01*
X124985000Y-172555000D02*
G75*
G03*
X125335000Y-172005000I-100000J450000D01*
G01*
X105935000Y-172555000D02*
X103085000Y-172555000D01*
X103085000Y-172555000D02*
X103085000Y-168755000D01*
X105285000Y-166555000D02*
X112885000Y-166555000D01*
X112885000Y-166555000D02*
X112885000Y-169505000D01*
X112285000Y-170055000D02*
X108285000Y-170055000D01*
X106285001Y-171855001D02*
G75*
G02*
X108285000Y-170055000I1900000J-99999D01*
G01*
X112285000Y-170055000D02*
G75*
G03*
X112885000Y-169505000I25000J575000D01*
G01*
X105285000Y-166555000D02*
G75*
G03*
X103085000Y-168755000I0J-2200000D01*
G01*
X105935000Y-172555000D02*
G75*
G03*
X106285000Y-172005000I-100000J450000D01*
G01*
X86885000Y-172555000D02*
X84035000Y-172555000D01*
X84035000Y-172555000D02*
X84035000Y-168755000D01*
X86235000Y-166555000D02*
X93835000Y-166555000D01*
X93835000Y-166555000D02*
X93835000Y-169505000D01*
X93235000Y-170055000D02*
X89235000Y-170055000D01*
X87235001Y-171855001D02*
G75*
G02*
X89235000Y-170055000I1900000J-99999D01*
G01*
X93235000Y-170055000D02*
G75*
G03*
X93835000Y-169505000I25000J575000D01*
G01*
X86235000Y-166555000D02*
G75*
G03*
X84035000Y-168755000I0J-2200000D01*
G01*
X86885000Y-172555000D02*
G75*
G03*
X87235000Y-172005000I-100000J450000D01*
G01*
X267860000Y-153505000D02*
X265010000Y-153505000D01*
X265010000Y-153505000D02*
X265010000Y-149705000D01*
X267210000Y-147505000D02*
X274810000Y-147505000D01*
X274810000Y-147505000D02*
X274810000Y-150455000D01*
X274210000Y-151005000D02*
X270210000Y-151005000D01*
X268210001Y-152805001D02*
G75*
G02*
X270210000Y-151005000I1900000J-99999D01*
G01*
X274210000Y-151005000D02*
G75*
G03*
X274810000Y-150455000I25000J575000D01*
G01*
X267210000Y-147505000D02*
G75*
G03*
X265010000Y-149705000I0J-2200000D01*
G01*
X267860000Y-153505000D02*
G75*
G03*
X268210000Y-152955000I-100000J450000D01*
G01*
X248810000Y-153505000D02*
X245960000Y-153505000D01*
X245960000Y-153505000D02*
X245960000Y-149705000D01*
X248160000Y-147505000D02*
X255760000Y-147505000D01*
X255760000Y-147505000D02*
X255760000Y-150455000D01*
X255160000Y-151005000D02*
X251160000Y-151005000D01*
X249160001Y-152805001D02*
G75*
G02*
X251160000Y-151005000I1900000J-99999D01*
G01*
X255160000Y-151005000D02*
G75*
G03*
X255760000Y-150455000I25000J575000D01*
G01*
X248160000Y-147505000D02*
G75*
G03*
X245960000Y-149705000I0J-2200000D01*
G01*
X248810000Y-153505000D02*
G75*
G03*
X249160000Y-152955000I-100000J450000D01*
G01*
X229760000Y-153505000D02*
X226910000Y-153505000D01*
X226910000Y-153505000D02*
X226910000Y-149705000D01*
X229110000Y-147505000D02*
X236710000Y-147505000D01*
X236710000Y-147505000D02*
X236710000Y-150455000D01*
X236110000Y-151005000D02*
X232110000Y-151005000D01*
X230110001Y-152805001D02*
G75*
G02*
X232110000Y-151005000I1900000J-99999D01*
G01*
X236110000Y-151005000D02*
G75*
G03*
X236710000Y-150455000I25000J575000D01*
G01*
X229110000Y-147505000D02*
G75*
G03*
X226910000Y-149705000I0J-2200000D01*
G01*
X229760000Y-153505000D02*
G75*
G03*
X230110000Y-152955000I-100000J450000D01*
G01*
X210710000Y-153505000D02*
X207860000Y-153505000D01*
X207860000Y-153505000D02*
X207860000Y-149705000D01*
X210060000Y-147505000D02*
X217660000Y-147505000D01*
X217660000Y-147505000D02*
X217660000Y-150455000D01*
X217060000Y-151005000D02*
X213060000Y-151005000D01*
X211060001Y-152805001D02*
G75*
G02*
X213060000Y-151005000I1900000J-99999D01*
G01*
X217060000Y-151005000D02*
G75*
G03*
X217660000Y-150455000I25000J575000D01*
G01*
X210060000Y-147505000D02*
G75*
G03*
X207860000Y-149705000I0J-2200000D01*
G01*
X210710000Y-153505000D02*
G75*
G03*
X211060000Y-152955000I-100000J450000D01*
G01*
X191660000Y-153505000D02*
X188810000Y-153505000D01*
X188810000Y-153505000D02*
X188810000Y-149705000D01*
X191010000Y-147505000D02*
X198610000Y-147505000D01*
X198610000Y-147505000D02*
X198610000Y-150455000D01*
X198010000Y-151005000D02*
X194010000Y-151005000D01*
X192010001Y-152805001D02*
G75*
G02*
X194010000Y-151005000I1900000J-99999D01*
G01*
X198010000Y-151005000D02*
G75*
G03*
X198610000Y-150455000I25000J575000D01*
G01*
X191010000Y-147505000D02*
G75*
G03*
X188810000Y-149705000I0J-2200000D01*
G01*
X191660000Y-153505000D02*
G75*
G03*
X192010000Y-152955000I-100000J450000D01*
G01*
X172610000Y-153505000D02*
X169760000Y-153505000D01*
X169760000Y-153505000D02*
X169760000Y-149705000D01*
X171960000Y-147505000D02*
X179560000Y-147505000D01*
X179560000Y-147505000D02*
X179560000Y-150455000D01*
X178960000Y-151005000D02*
X174960000Y-151005000D01*
X172960001Y-152805001D02*
G75*
G02*
X174960000Y-151005000I1900000J-99999D01*
G01*
X178960000Y-151005000D02*
G75*
G03*
X179560000Y-150455000I25000J575000D01*
G01*
X171960000Y-147505000D02*
G75*
G03*
X169760000Y-149705000I0J-2200000D01*
G01*
X172610000Y-153505000D02*
G75*
G03*
X172960000Y-152955000I-100000J450000D01*
G01*
X153560000Y-153505000D02*
X150710000Y-153505000D01*
X150710000Y-153505000D02*
X150710000Y-149705000D01*
X152910000Y-147505000D02*
X160510000Y-147505000D01*
X160510000Y-147505000D02*
X160510000Y-150455000D01*
X159910000Y-151005000D02*
X155910000Y-151005000D01*
X153910001Y-152805001D02*
G75*
G02*
X155910000Y-151005000I1900000J-99999D01*
G01*
X159910000Y-151005000D02*
G75*
G03*
X160510000Y-150455000I25000J575000D01*
G01*
X152910000Y-147505000D02*
G75*
G03*
X150710000Y-149705000I0J-2200000D01*
G01*
X153560000Y-153505000D02*
G75*
G03*
X153910000Y-152955000I-100000J450000D01*
G01*
X134510000Y-153505000D02*
X131660000Y-153505000D01*
X131660000Y-153505000D02*
X131660000Y-149705000D01*
X133860000Y-147505000D02*
X141460000Y-147505000D01*
X141460000Y-147505000D02*
X141460000Y-150455000D01*
X140860000Y-151005000D02*
X136860000Y-151005000D01*
X134860001Y-152805001D02*
G75*
G02*
X136860000Y-151005000I1900000J-99999D01*
G01*
X140860000Y-151005000D02*
G75*
G03*
X141460000Y-150455000I25000J575000D01*
G01*
X133860000Y-147505000D02*
G75*
G03*
X131660000Y-149705000I0J-2200000D01*
G01*
X134510000Y-153505000D02*
G75*
G03*
X134860000Y-152955000I-100000J450000D01*
G01*
X115460000Y-153505000D02*
X112610000Y-153505000D01*
X112610000Y-153505000D02*
X112610000Y-149705000D01*
X114810000Y-147505000D02*
X122410000Y-147505000D01*
X122410000Y-147505000D02*
X122410000Y-150455000D01*
X121810000Y-151005000D02*
X117810000Y-151005000D01*
X115810001Y-152805001D02*
G75*
G02*
X117810000Y-151005000I1900000J-99999D01*
G01*
X121810000Y-151005000D02*
G75*
G03*
X122410000Y-150455000I25000J575000D01*
G01*
X114810000Y-147505000D02*
G75*
G03*
X112610000Y-149705000I0J-2200000D01*
G01*
X115460000Y-153505000D02*
G75*
G03*
X115810000Y-152955000I-100000J450000D01*
G01*
X96410000Y-153505000D02*
X93560000Y-153505000D01*
X93560000Y-153505000D02*
X93560000Y-149705000D01*
X95760000Y-147505000D02*
X103360000Y-147505000D01*
X103360000Y-147505000D02*
X103360000Y-150455000D01*
X102760000Y-151005000D02*
X98760000Y-151005000D01*
X96760001Y-152805001D02*
G75*
G02*
X98760000Y-151005000I1900000J-99999D01*
G01*
X102760000Y-151005000D02*
G75*
G03*
X103360000Y-150455000I25000J575000D01*
G01*
X95760000Y-147505000D02*
G75*
G03*
X93560000Y-149705000I0J-2200000D01*
G01*
X96410000Y-153505000D02*
G75*
G03*
X96760000Y-152955000I-100000J450000D01*
G01*
X77360000Y-153505000D02*
X74510000Y-153505000D01*
X74510000Y-153505000D02*
X74510000Y-149705000D01*
X76710000Y-147505000D02*
X84310000Y-147505000D01*
X84310000Y-147505000D02*
X84310000Y-150455000D01*
X83710000Y-151005000D02*
X79710000Y-151005000D01*
X77710001Y-152805001D02*
G75*
G02*
X79710000Y-151005000I1900000J-99999D01*
G01*
X83710000Y-151005000D02*
G75*
G03*
X84310000Y-150455000I25000J575000D01*
G01*
X76710000Y-147505000D02*
G75*
G03*
X74510000Y-149705000I0J-2200000D01*
G01*
X77360000Y-153505000D02*
G75*
G03*
X77710000Y-152955000I-100000J450000D01*
G01*
X51166250Y-153505000D02*
X48316250Y-153505000D01*
X48316250Y-153505000D02*
X48316250Y-149705000D01*
X50516250Y-147505000D02*
X58116250Y-147505000D01*
X58116250Y-147505000D02*
X58116250Y-150455000D01*
X57516250Y-151005000D02*
X53516250Y-151005000D01*
X51516251Y-152805001D02*
G75*
G02*
X53516250Y-151005000I1900000J-99999D01*
G01*
X57516250Y-151005000D02*
G75*
G03*
X58116250Y-150455000I25000J575000D01*
G01*
X50516250Y-147505000D02*
G75*
G03*
X48316250Y-149705000I0J-2200000D01*
G01*
X51166250Y-153505000D02*
G75*
G03*
X51516250Y-152955000I-100000J450000D01*
G01*
X372635000Y-134442300D02*
X369785000Y-134442300D01*
X369785000Y-134442300D02*
X369785000Y-130642300D01*
X371985000Y-128442300D02*
X379585000Y-128442300D01*
X379585000Y-128442300D02*
X379585000Y-131392300D01*
X378985000Y-131942300D02*
X374985000Y-131942300D01*
X372985001Y-133742301D02*
G75*
G02*
X374985000Y-131942300I1900000J-99999D01*
G01*
X378985000Y-131942300D02*
G75*
G03*
X379585000Y-131392300I25000J575000D01*
G01*
X371985000Y-128442300D02*
G75*
G03*
X369785000Y-130642300I0J-2200000D01*
G01*
X372635000Y-134442300D02*
G75*
G03*
X372985000Y-133892300I-100000J450000D01*
G01*
X353585000Y-134442300D02*
X350735000Y-134442300D01*
X350735000Y-134442300D02*
X350735000Y-130642300D01*
X352935000Y-128442300D02*
X360535000Y-128442300D01*
X360535000Y-128442300D02*
X360535000Y-131392300D01*
X359935000Y-131942300D02*
X355935000Y-131942300D01*
X353935001Y-133742301D02*
G75*
G02*
X355935000Y-131942300I1900000J-99999D01*
G01*
X359935000Y-131942300D02*
G75*
G03*
X360535000Y-131392300I25000J575000D01*
G01*
X352935000Y-128442300D02*
G75*
G03*
X350735000Y-130642300I0J-2200000D01*
G01*
X353585000Y-134442300D02*
G75*
G03*
X353935000Y-133892300I-100000J450000D01*
G01*
X334535000Y-134442300D02*
X331685000Y-134442300D01*
X331685000Y-134442300D02*
X331685000Y-130642300D01*
X333885000Y-128442300D02*
X341485000Y-128442300D01*
X341485000Y-128442300D02*
X341485000Y-131392300D01*
X340885000Y-131942300D02*
X336885000Y-131942300D01*
X334885001Y-133742301D02*
G75*
G02*
X336885000Y-131942300I1900000J-99999D01*
G01*
X340885000Y-131942300D02*
G75*
G03*
X341485000Y-131392300I25000J575000D01*
G01*
X333885000Y-128442300D02*
G75*
G03*
X331685000Y-130642300I0J-2200000D01*
G01*
X334535000Y-134442300D02*
G75*
G03*
X334885000Y-133892300I-100000J450000D01*
G01*
X305972700Y-134455000D02*
X303122700Y-134455000D01*
X303122700Y-134455000D02*
X303122700Y-130655000D01*
X305322700Y-128455000D02*
X312922700Y-128455000D01*
X312922700Y-128455000D02*
X312922700Y-131405000D01*
X312322700Y-131955000D02*
X308322700Y-131955000D01*
X306322701Y-133755001D02*
G75*
G02*
X308322700Y-131955000I1900000J-99999D01*
G01*
X312322700Y-131955000D02*
G75*
G03*
X312922700Y-131405000I25000J575000D01*
G01*
X305322700Y-128455000D02*
G75*
G03*
X303122700Y-130655000I0J-2200000D01*
G01*
X305972700Y-134455000D02*
G75*
G03*
X306322700Y-133905000I-100000J450000D01*
G01*
X282147500Y-134455000D02*
X279297500Y-134455000D01*
X279297500Y-134455000D02*
X279297500Y-130655000D01*
X281497500Y-128455000D02*
X289097500Y-128455000D01*
X289097500Y-128455000D02*
X289097500Y-131405000D01*
X288497500Y-131955000D02*
X284497500Y-131955000D01*
X282497501Y-133755001D02*
G75*
G02*
X284497500Y-131955000I1900000J-99999D01*
G01*
X288497500Y-131955000D02*
G75*
G03*
X289097500Y-131405000I25000J575000D01*
G01*
X281497500Y-128455000D02*
G75*
G03*
X279297500Y-130655000I0J-2200000D01*
G01*
X282147500Y-134455000D02*
G75*
G03*
X282497500Y-133905000I-100000J450000D01*
G01*
X263097500Y-134455000D02*
X260247500Y-134455000D01*
X260247500Y-134455000D02*
X260247500Y-130655000D01*
X262447500Y-128455000D02*
X270047500Y-128455000D01*
X270047500Y-128455000D02*
X270047500Y-131405000D01*
X269447500Y-131955000D02*
X265447500Y-131955000D01*
X263447501Y-133755001D02*
G75*
G02*
X265447500Y-131955000I1900000J-99999D01*
G01*
X269447500Y-131955000D02*
G75*
G03*
X270047500Y-131405000I25000J575000D01*
G01*
X262447500Y-128455000D02*
G75*
G03*
X260247500Y-130655000I0J-2200000D01*
G01*
X263097500Y-134455000D02*
G75*
G03*
X263447500Y-133905000I-100000J450000D01*
G01*
X244047500Y-134455000D02*
X241197500Y-134455000D01*
X241197500Y-134455000D02*
X241197500Y-130655000D01*
X243397500Y-128455000D02*
X250997500Y-128455000D01*
X250997500Y-128455000D02*
X250997500Y-131405000D01*
X250397500Y-131955000D02*
X246397500Y-131955000D01*
X244397501Y-133755001D02*
G75*
G02*
X246397500Y-131955000I1900000J-99999D01*
G01*
X250397500Y-131955000D02*
G75*
G03*
X250997500Y-131405000I25000J575000D01*
G01*
X243397500Y-128455000D02*
G75*
G03*
X241197500Y-130655000I0J-2200000D01*
G01*
X244047500Y-134455000D02*
G75*
G03*
X244397500Y-133905000I-100000J450000D01*
G01*
X224997500Y-134455000D02*
X222147500Y-134455000D01*
X222147500Y-134455000D02*
X222147500Y-130655000D01*
X224347500Y-128455000D02*
X231947500Y-128455000D01*
X231947500Y-128455000D02*
X231947500Y-131405000D01*
X231347500Y-131955000D02*
X227347500Y-131955000D01*
X225347501Y-133755001D02*
G75*
G02*
X227347500Y-131955000I1900000J-99999D01*
G01*
X231347500Y-131955000D02*
G75*
G03*
X231947500Y-131405000I25000J575000D01*
G01*
X224347500Y-128455000D02*
G75*
G03*
X222147500Y-130655000I0J-2200000D01*
G01*
X224997500Y-134455000D02*
G75*
G03*
X225347500Y-133905000I-100000J450000D01*
G01*
X205947500Y-134455000D02*
X203097500Y-134455000D01*
X203097500Y-134455000D02*
X203097500Y-130655000D01*
X205297500Y-128455000D02*
X212897500Y-128455000D01*
X212897500Y-128455000D02*
X212897500Y-131405000D01*
X212297500Y-131955000D02*
X208297500Y-131955000D01*
X206297501Y-133755001D02*
G75*
G02*
X208297500Y-131955000I1900000J-99999D01*
G01*
X212297500Y-131955000D02*
G75*
G03*
X212897500Y-131405000I25000J575000D01*
G01*
X205297500Y-128455000D02*
G75*
G03*
X203097500Y-130655000I0J-2200000D01*
G01*
X205947500Y-134455000D02*
G75*
G03*
X206297500Y-133905000I-100000J450000D01*
G01*
X186897500Y-134455000D02*
X184047500Y-134455000D01*
X184047500Y-134455000D02*
X184047500Y-130655000D01*
X186247500Y-128455000D02*
X193847500Y-128455000D01*
X193847500Y-128455000D02*
X193847500Y-131405000D01*
X193247500Y-131955000D02*
X189247500Y-131955000D01*
X187247501Y-133755001D02*
G75*
G02*
X189247500Y-131955000I1900000J-99999D01*
G01*
X193247500Y-131955000D02*
G75*
G03*
X193847500Y-131405000I25000J575000D01*
G01*
X186247500Y-128455000D02*
G75*
G03*
X184047500Y-130655000I0J-2200000D01*
G01*
X186897500Y-134455000D02*
G75*
G03*
X187247500Y-133905000I-100000J450000D01*
G01*
X167847500Y-134455000D02*
X164997500Y-134455000D01*
X164997500Y-134455000D02*
X164997500Y-130655000D01*
X167197500Y-128455000D02*
X174797500Y-128455000D01*
X174797500Y-128455000D02*
X174797500Y-131405000D01*
X174197500Y-131955000D02*
X170197500Y-131955000D01*
X168197501Y-133755001D02*
G75*
G02*
X170197500Y-131955000I1900000J-99999D01*
G01*
X174197500Y-131955000D02*
G75*
G03*
X174797500Y-131405000I25000J575000D01*
G01*
X167197500Y-128455000D02*
G75*
G03*
X164997500Y-130655000I0J-2200000D01*
G01*
X167847500Y-134455000D02*
G75*
G03*
X168197500Y-133905000I-100000J450000D01*
G01*
X148797500Y-134455000D02*
X145947500Y-134455000D01*
X145947500Y-134455000D02*
X145947500Y-130655000D01*
X148147500Y-128455000D02*
X155747500Y-128455000D01*
X155747500Y-128455000D02*
X155747500Y-131405000D01*
X155147500Y-131955000D02*
X151147500Y-131955000D01*
X149147501Y-133755001D02*
G75*
G02*
X151147500Y-131955000I1900000J-99999D01*
G01*
X155147500Y-131955000D02*
G75*
G03*
X155747500Y-131405000I25000J575000D01*
G01*
X148147500Y-128455000D02*
G75*
G03*
X145947500Y-130655000I0J-2200000D01*
G01*
X148797500Y-134455000D02*
G75*
G03*
X149147500Y-133905000I-100000J450000D01*
G01*
X129747500Y-134455000D02*
X126897500Y-134455000D01*
X126897500Y-134455000D02*
X126897500Y-130655000D01*
X129097500Y-128455000D02*
X136697500Y-128455000D01*
X136697500Y-128455000D02*
X136697500Y-131405000D01*
X136097500Y-131955000D02*
X132097500Y-131955000D01*
X130097501Y-133755001D02*
G75*
G02*
X132097500Y-131955000I1900000J-99999D01*
G01*
X136097500Y-131955000D02*
G75*
G03*
X136697500Y-131405000I25000J575000D01*
G01*
X129097500Y-128455000D02*
G75*
G03*
X126897500Y-130655000I0J-2200000D01*
G01*
X129747500Y-134455000D02*
G75*
G03*
X130097500Y-133905000I-100000J450000D01*
G01*
X110697500Y-134455000D02*
X107847500Y-134455000D01*
X107847500Y-134455000D02*
X107847500Y-130655000D01*
X110047500Y-128455000D02*
X117647500Y-128455000D01*
X117647500Y-128455000D02*
X117647500Y-131405000D01*
X117047500Y-131955000D02*
X113047500Y-131955000D01*
X111047501Y-133755001D02*
G75*
G02*
X113047500Y-131955000I1900000J-99999D01*
G01*
X117047500Y-131955000D02*
G75*
G03*
X117647500Y-131405000I25000J575000D01*
G01*
X110047500Y-128455000D02*
G75*
G03*
X107847500Y-130655000I0J-2200000D01*
G01*
X110697500Y-134455000D02*
G75*
G03*
X111047500Y-133905000I-100000J450000D01*
G01*
X91647500Y-134455000D02*
X88797500Y-134455000D01*
X88797500Y-134455000D02*
X88797500Y-130655000D01*
X90997500Y-128455000D02*
X98597500Y-128455000D01*
X98597500Y-128455000D02*
X98597500Y-131405000D01*
X97997500Y-131955000D02*
X93997500Y-131955000D01*
X91997501Y-133755001D02*
G75*
G02*
X93997500Y-131955000I1900000J-99999D01*
G01*
X97997500Y-131955000D02*
G75*
G03*
X98597500Y-131405000I25000J575000D01*
G01*
X90997500Y-128455000D02*
G75*
G03*
X88797500Y-130655000I0J-2200000D01*
G01*
X91647500Y-134455000D02*
G75*
G03*
X91997500Y-133905000I-100000J450000D01*
G01*
X72597500Y-134455000D02*
X69747500Y-134455000D01*
X69747500Y-134455000D02*
X69747500Y-130655000D01*
X71947500Y-128455000D02*
X79547500Y-128455000D01*
X79547500Y-128455000D02*
X79547500Y-131405000D01*
X78947500Y-131955000D02*
X74947500Y-131955000D01*
X72947501Y-133755001D02*
G75*
G02*
X74947500Y-131955000I1900000J-99999D01*
G01*
X78947500Y-131955000D02*
G75*
G03*
X79547500Y-131405000I25000J575000D01*
G01*
X71947500Y-128455000D02*
G75*
G03*
X69747500Y-130655000I0J-2200000D01*
G01*
X72597500Y-134455000D02*
G75*
G03*
X72947500Y-133905000I-100000J450000D01*
G01*
X48785000Y-134455000D02*
X45935000Y-134455000D01*
X45935000Y-134455000D02*
X45935000Y-130655000D01*
X48135000Y-128455000D02*
X55735000Y-128455000D01*
X55735000Y-128455000D02*
X55735000Y-131405000D01*
X55135000Y-131955000D02*
X51135000Y-131955000D01*
X49135001Y-133755001D02*
G75*
G02*
X51135000Y-131955000I1900000J-99999D01*
G01*
X55135000Y-131955000D02*
G75*
G03*
X55735000Y-131405000I25000J575000D01*
G01*
X48135000Y-128455000D02*
G75*
G03*
X45935000Y-130655000I0J-2200000D01*
G01*
X48785000Y-134455000D02*
G75*
G03*
X49135000Y-133905000I-100000J450000D01*
G01*
X372635000Y-115392300D02*
X369785000Y-115392300D01*
X369785000Y-115392300D02*
X369785000Y-111592300D01*
X371985000Y-109392300D02*
X379585000Y-109392300D01*
X379585000Y-109392300D02*
X379585000Y-112342300D01*
X378985000Y-112892300D02*
X374985000Y-112892300D01*
X372985001Y-114692301D02*
G75*
G02*
X374985000Y-112892300I1900000J-99999D01*
G01*
X378985000Y-112892300D02*
G75*
G03*
X379585000Y-112342300I25000J575000D01*
G01*
X371985000Y-109392300D02*
G75*
G03*
X369785000Y-111592300I0J-2200000D01*
G01*
X372635000Y-115392300D02*
G75*
G03*
X372985000Y-114842300I-100000J450000D01*
G01*
X353585000Y-115392300D02*
X350735000Y-115392300D01*
X350735000Y-115392300D02*
X350735000Y-111592300D01*
X352935000Y-109392300D02*
X360535000Y-109392300D01*
X360535000Y-109392300D02*
X360535000Y-112342300D01*
X359935000Y-112892300D02*
X355935000Y-112892300D01*
X353935001Y-114692301D02*
G75*
G02*
X355935000Y-112892300I1900000J-99999D01*
G01*
X359935000Y-112892300D02*
G75*
G03*
X360535000Y-112342300I25000J575000D01*
G01*
X352935000Y-109392300D02*
G75*
G03*
X350735000Y-111592300I0J-2200000D01*
G01*
X353585000Y-115392300D02*
G75*
G03*
X353935000Y-114842300I-100000J450000D01*
G01*
X334535000Y-115392300D02*
X331685000Y-115392300D01*
X331685000Y-115392300D02*
X331685000Y-111592300D01*
X333885000Y-109392300D02*
X341485000Y-109392300D01*
X341485000Y-109392300D02*
X341485000Y-112342300D01*
X340885000Y-112892300D02*
X336885000Y-112892300D01*
X334885001Y-114692301D02*
G75*
G02*
X336885000Y-112892300I1900000J-99999D01*
G01*
X340885000Y-112892300D02*
G75*
G03*
X341485000Y-112342300I25000J575000D01*
G01*
X333885000Y-109392300D02*
G75*
G03*
X331685000Y-111592300I0J-2200000D01*
G01*
X334535000Y-115392300D02*
G75*
G03*
X334885000Y-114842300I-100000J450000D01*
G01*
X272635200Y-115392300D02*
X269785200Y-115392300D01*
X269785200Y-115392300D02*
X269785200Y-111592300D01*
X271985200Y-109392300D02*
X279585200Y-109392300D01*
X279585200Y-109392300D02*
X279585200Y-112342300D01*
X278985200Y-112892300D02*
X274985200Y-112892300D01*
X272985201Y-114692301D02*
G75*
G02*
X274985200Y-112892300I1900000J-99999D01*
G01*
X278985200Y-112892300D02*
G75*
G03*
X279585200Y-112342300I25000J575000D01*
G01*
X271985200Y-109392300D02*
G75*
G03*
X269785200Y-111592300I0J-2200000D01*
G01*
X272635200Y-115392300D02*
G75*
G03*
X272985200Y-114842300I-100000J450000D01*
G01*
X253585200Y-115392300D02*
X250735200Y-115392300D01*
X250735200Y-115392300D02*
X250735200Y-111592300D01*
X252935200Y-109392300D02*
X260535200Y-109392300D01*
X260535200Y-109392300D02*
X260535200Y-112342300D01*
X259935200Y-112892300D02*
X255935200Y-112892300D01*
X253935201Y-114692301D02*
G75*
G02*
X255935200Y-112892300I1900000J-99999D01*
G01*
X259935200Y-112892300D02*
G75*
G03*
X260535200Y-112342300I25000J575000D01*
G01*
X252935200Y-109392300D02*
G75*
G03*
X250735200Y-111592300I0J-2200000D01*
G01*
X253585200Y-115392300D02*
G75*
G03*
X253935200Y-114842300I-100000J450000D01*
G01*
X234535200Y-115392300D02*
X231685200Y-115392300D01*
X231685200Y-115392300D02*
X231685200Y-111592300D01*
X233885200Y-109392300D02*
X241485200Y-109392300D01*
X241485200Y-109392300D02*
X241485200Y-112342300D01*
X240885200Y-112892300D02*
X236885200Y-112892300D01*
X234885201Y-114692301D02*
G75*
G02*
X236885200Y-112892300I1900000J-99999D01*
G01*
X240885200Y-112892300D02*
G75*
G03*
X241485200Y-112342300I25000J575000D01*
G01*
X233885200Y-109392300D02*
G75*
G03*
X231685200Y-111592300I0J-2200000D01*
G01*
X234535200Y-115392300D02*
G75*
G03*
X234885200Y-114842300I-100000J450000D01*
G01*
X215485200Y-115392300D02*
X212635200Y-115392300D01*
X212635200Y-115392300D02*
X212635200Y-111592300D01*
X214835200Y-109392300D02*
X222435200Y-109392300D01*
X222435200Y-109392300D02*
X222435200Y-112342300D01*
X221835200Y-112892300D02*
X217835200Y-112892300D01*
X215835201Y-114692301D02*
G75*
G02*
X217835200Y-112892300I1900000J-99999D01*
G01*
X221835200Y-112892300D02*
G75*
G03*
X222435200Y-112342300I25000J575000D01*
G01*
X214835200Y-109392300D02*
G75*
G03*
X212635200Y-111592300I0J-2200000D01*
G01*
X215485200Y-115392300D02*
G75*
G03*
X215835200Y-114842300I-100000J450000D01*
G01*
X196435200Y-115392300D02*
X193585200Y-115392300D01*
X193585200Y-115392300D02*
X193585200Y-111592300D01*
X195785200Y-109392300D02*
X203385200Y-109392300D01*
X203385200Y-109392300D02*
X203385200Y-112342300D01*
X202785200Y-112892300D02*
X198785200Y-112892300D01*
X196785201Y-114692301D02*
G75*
G02*
X198785200Y-112892300I1900000J-99999D01*
G01*
X202785200Y-112892300D02*
G75*
G03*
X203385200Y-112342300I25000J575000D01*
G01*
X195785200Y-109392300D02*
G75*
G03*
X193585200Y-111592300I0J-2200000D01*
G01*
X196435200Y-115392300D02*
G75*
G03*
X196785200Y-114842300I-100000J450000D01*
G01*
X158335200Y-115392300D02*
X155485200Y-115392300D01*
X155485200Y-115392300D02*
X155485200Y-111592300D01*
X157685200Y-109392300D02*
X165285200Y-109392300D01*
X165285200Y-109392300D02*
X165285200Y-112342300D01*
X164685200Y-112892300D02*
X160685200Y-112892300D01*
X158685201Y-114692301D02*
G75*
G02*
X160685200Y-112892300I1900000J-99999D01*
G01*
X164685200Y-112892300D02*
G75*
G03*
X165285200Y-112342300I25000J575000D01*
G01*
X157685200Y-109392300D02*
G75*
G03*
X155485200Y-111592300I0J-2200000D01*
G01*
X158335200Y-115392300D02*
G75*
G03*
X158685200Y-114842300I-100000J450000D01*
G01*
X139285200Y-115392300D02*
X136435200Y-115392300D01*
X136435200Y-115392300D02*
X136435200Y-111592300D01*
X138635200Y-109392300D02*
X146235200Y-109392300D01*
X146235200Y-109392300D02*
X146235200Y-112342300D01*
X145635200Y-112892300D02*
X141635200Y-112892300D01*
X139635201Y-114692301D02*
G75*
G02*
X141635200Y-112892300I1900000J-99999D01*
G01*
X145635200Y-112892300D02*
G75*
G03*
X146235200Y-112342300I25000J575000D01*
G01*
X138635200Y-109392300D02*
G75*
G03*
X136435200Y-111592300I0J-2200000D01*
G01*
X139285200Y-115392300D02*
G75*
G03*
X139635200Y-114842300I-100000J450000D01*
G01*
X120235200Y-115392300D02*
X117385200Y-115392300D01*
X117385200Y-115392300D02*
X117385200Y-111592300D01*
X119585200Y-109392300D02*
X127185200Y-109392300D01*
X127185200Y-109392300D02*
X127185200Y-112342300D01*
X126585200Y-112892300D02*
X122585200Y-112892300D01*
X120585201Y-114692301D02*
G75*
G02*
X122585200Y-112892300I1900000J-99999D01*
G01*
X126585200Y-112892300D02*
G75*
G03*
X127185200Y-112342300I25000J575000D01*
G01*
X119585200Y-109392300D02*
G75*
G03*
X117385200Y-111592300I0J-2200000D01*
G01*
X120235200Y-115392300D02*
G75*
G03*
X120585200Y-114842300I-100000J450000D01*
G01*
X101185200Y-115392300D02*
X98335200Y-115392300D01*
X98335200Y-115392300D02*
X98335200Y-111592300D01*
X100535200Y-109392300D02*
X108135200Y-109392300D01*
X108135200Y-109392300D02*
X108135200Y-112342300D01*
X107535200Y-112892300D02*
X103535200Y-112892300D01*
X101535201Y-114692301D02*
G75*
G02*
X103535200Y-112892300I1900000J-99999D01*
G01*
X107535200Y-112892300D02*
G75*
G03*
X108135200Y-112342300I25000J575000D01*
G01*
X100535200Y-109392300D02*
G75*
G03*
X98335200Y-111592300I0J-2200000D01*
G01*
X101185200Y-115392300D02*
G75*
G03*
X101535200Y-114842300I-100000J450000D01*
G01*
X63085200Y-115392300D02*
X60235200Y-115392300D01*
X60235200Y-115392300D02*
X60235200Y-111592300D01*
X62435200Y-109392300D02*
X70035200Y-109392300D01*
X70035200Y-109392300D02*
X70035200Y-112342300D01*
X69435200Y-112892300D02*
X65435200Y-112892300D01*
X63435201Y-114692301D02*
G75*
G02*
X65435200Y-112892300I1900000J-99999D01*
G01*
X69435200Y-112892300D02*
G75*
G03*
X70035200Y-112342300I25000J575000D01*
G01*
X62435200Y-109392300D02*
G75*
G03*
X60235200Y-111592300I0J-2200000D01*
G01*
X63085200Y-115392300D02*
G75*
G03*
X63435200Y-114842300I-100000J450000D01*
G01*
X44035200Y-115392300D02*
X41185200Y-115392300D01*
X41185200Y-115392300D02*
X41185200Y-111592300D01*
X43385200Y-109392300D02*
X50985200Y-109392300D01*
X50985200Y-109392300D02*
X50985200Y-112342300D01*
X50385200Y-112892300D02*
X46385200Y-112892300D01*
X44385201Y-114692301D02*
G75*
G02*
X46385200Y-112892300I1900000J-99999D01*
G01*
X50385200Y-112892300D02*
G75*
G03*
X50985200Y-112342300I25000J575000D01*
G01*
X43385200Y-109392300D02*
G75*
G03*
X41185200Y-111592300I0J-2200000D01*
G01*
X44035200Y-115392300D02*
G75*
G03*
X44385200Y-114842300I-100000J450000D01*
G01*
X372635000Y-91579800D02*
X369785000Y-91579800D01*
X369785000Y-91579800D02*
X369785000Y-87779800D01*
X371985000Y-85579800D02*
X379585000Y-85579800D01*
X379585000Y-85579800D02*
X379585000Y-88529800D01*
X378985000Y-89079800D02*
X374985000Y-89079800D01*
X372985001Y-90879801D02*
G75*
G02*
X374985000Y-89079800I1900000J-99999D01*
G01*
X378985000Y-89079800D02*
G75*
G03*
X379585000Y-88529800I25000J575000D01*
G01*
X371985000Y-85579800D02*
G75*
G03*
X369785000Y-87779800I0J-2200000D01*
G01*
X372635000Y-91579800D02*
G75*
G03*
X372985000Y-91029800I-100000J450000D01*
G01*
X353585000Y-91579800D02*
X350735000Y-91579800D01*
X350735000Y-91579800D02*
X350735000Y-87779800D01*
X352935000Y-85579800D02*
X360535000Y-85579800D01*
X360535000Y-85579800D02*
X360535000Y-88529800D01*
X359935000Y-89079800D02*
X355935000Y-89079800D01*
X353935001Y-90879801D02*
G75*
G02*
X355935000Y-89079800I1900000J-99999D01*
G01*
X359935000Y-89079800D02*
G75*
G03*
X360535000Y-88529800I25000J575000D01*
G01*
X352935000Y-85579800D02*
G75*
G03*
X350735000Y-87779800I0J-2200000D01*
G01*
X353585000Y-91579800D02*
G75*
G03*
X353935000Y-91029800I-100000J450000D01*
G01*
X334547700Y-91579800D02*
X331697700Y-91579800D01*
X331697700Y-91579800D02*
X331697700Y-87779800D01*
X333897700Y-85579800D02*
X341497700Y-85579800D01*
X341497700Y-85579800D02*
X341497700Y-88529800D01*
X340897700Y-89079800D02*
X336897700Y-89079800D01*
X334897701Y-90879801D02*
G75*
G02*
X336897700Y-89079800I1900000J-99999D01*
G01*
X340897700Y-89079800D02*
G75*
G03*
X341497700Y-88529800I25000J575000D01*
G01*
X333897700Y-85579800D02*
G75*
G03*
X331697700Y-87779800I0J-2200000D01*
G01*
X334547700Y-91579800D02*
G75*
G03*
X334897700Y-91029800I-100000J450000D01*
G01*
X310735200Y-91579800D02*
X307885200Y-91579800D01*
X307885200Y-91579800D02*
X307885200Y-87779800D01*
X310085200Y-85579800D02*
X317685200Y-85579800D01*
X317685200Y-85579800D02*
X317685200Y-88529800D01*
X317085200Y-89079800D02*
X313085200Y-89079800D01*
X311085201Y-90879801D02*
G75*
G02*
X313085200Y-89079800I1900000J-99999D01*
G01*
X317085200Y-89079800D02*
G75*
G03*
X317685200Y-88529800I25000J575000D01*
G01*
X310085200Y-85579800D02*
G75*
G03*
X307885200Y-87779800I0J-2200000D01*
G01*
X310735200Y-91579800D02*
G75*
G03*
X311085200Y-91029800I-100000J450000D01*
G01*
X291685200Y-91579800D02*
X288835200Y-91579800D01*
X288835200Y-91579800D02*
X288835200Y-87779800D01*
X291035200Y-85579800D02*
X298635200Y-85579800D01*
X298635200Y-85579800D02*
X298635200Y-88529800D01*
X298035200Y-89079800D02*
X294035200Y-89079800D01*
X292035201Y-90879801D02*
G75*
G02*
X294035200Y-89079800I1900000J-99999D01*
G01*
X298035200Y-89079800D02*
G75*
G03*
X298635200Y-88529800I25000J575000D01*
G01*
X291035200Y-85579800D02*
G75*
G03*
X288835200Y-87779800I0J-2200000D01*
G01*
X291685200Y-91579800D02*
G75*
G03*
X292035200Y-91029800I-100000J450000D01*
G01*
X272622500Y-91579800D02*
X269772500Y-91579800D01*
X269772500Y-91579800D02*
X269772500Y-87779800D01*
X271972500Y-85579800D02*
X279572500Y-85579800D01*
X279572500Y-85579800D02*
X279572500Y-88529800D01*
X278972500Y-89079800D02*
X274972500Y-89079800D01*
X272972501Y-90879801D02*
G75*
G02*
X274972500Y-89079800I1900000J-99999D01*
G01*
X278972500Y-89079800D02*
G75*
G03*
X279572500Y-88529800I25000J575000D01*
G01*
X271972500Y-85579800D02*
G75*
G03*
X269772500Y-87779800I0J-2200000D01*
G01*
X272622500Y-91579800D02*
G75*
G03*
X272972500Y-91029800I-100000J450000D01*
G01*
X253585200Y-91579800D02*
X250735200Y-91579800D01*
X250735200Y-91579800D02*
X250735200Y-87779800D01*
X252935200Y-85579800D02*
X260535200Y-85579800D01*
X260535200Y-85579800D02*
X260535200Y-88529800D01*
X259935200Y-89079800D02*
X255935200Y-89079800D01*
X253935201Y-90879801D02*
G75*
G02*
X255935200Y-89079800I1900000J-99999D01*
G01*
X259935200Y-89079800D02*
G75*
G03*
X260535200Y-88529800I25000J575000D01*
G01*
X252935200Y-85579800D02*
G75*
G03*
X250735200Y-87779800I0J-2200000D01*
G01*
X253585200Y-91579800D02*
G75*
G03*
X253935200Y-91029800I-100000J450000D01*
G01*
X224997500Y-91592500D02*
X222147500Y-91592500D01*
X222147500Y-91592500D02*
X222147500Y-87792500D01*
X224347500Y-85592500D02*
X231947500Y-85592500D01*
X231947500Y-85592500D02*
X231947500Y-88542500D01*
X231347500Y-89092500D02*
X227347500Y-89092500D01*
X225347501Y-90892501D02*
G75*
G02*
X227347500Y-89092500I1900000J-99999D01*
G01*
X231347500Y-89092500D02*
G75*
G03*
X231947500Y-88542500I25000J575000D01*
G01*
X224347500Y-85592500D02*
G75*
G03*
X222147500Y-87792500I0J-2200000D01*
G01*
X224997500Y-91592500D02*
G75*
G03*
X225347500Y-91042500I-100000J450000D01*
G01*
X205947500Y-91592500D02*
X203097500Y-91592500D01*
X203097500Y-91592500D02*
X203097500Y-87792500D01*
X205297500Y-85592500D02*
X212897500Y-85592500D01*
X212897500Y-85592500D02*
X212897500Y-88542500D01*
X212297500Y-89092500D02*
X208297500Y-89092500D01*
X206297501Y-90892501D02*
G75*
G02*
X208297500Y-89092500I1900000J-99999D01*
G01*
X212297500Y-89092500D02*
G75*
G03*
X212897500Y-88542500I25000J575000D01*
G01*
X205297500Y-85592500D02*
G75*
G03*
X203097500Y-87792500I0J-2200000D01*
G01*
X205947500Y-91592500D02*
G75*
G03*
X206297500Y-91042500I-100000J450000D01*
G01*
X186897500Y-91592500D02*
X184047500Y-91592500D01*
X184047500Y-91592500D02*
X184047500Y-87792500D01*
X186247500Y-85592500D02*
X193847500Y-85592500D01*
X193847500Y-85592500D02*
X193847500Y-88542500D01*
X193247500Y-89092500D02*
X189247500Y-89092500D01*
X187247501Y-90892501D02*
G75*
G02*
X189247500Y-89092500I1900000J-99999D01*
G01*
X193247500Y-89092500D02*
G75*
G03*
X193847500Y-88542500I25000J575000D01*
G01*
X186247500Y-85592500D02*
G75*
G03*
X184047500Y-87792500I0J-2200000D01*
G01*
X186897500Y-91592500D02*
G75*
G03*
X187247500Y-91042500I-100000J450000D01*
G01*
X167847500Y-91592500D02*
X164997500Y-91592500D01*
X164997500Y-91592500D02*
X164997500Y-87792500D01*
X167197500Y-85592500D02*
X174797500Y-85592500D01*
X174797500Y-85592500D02*
X174797500Y-88542500D01*
X174197500Y-89092500D02*
X170197500Y-89092500D01*
X168197501Y-90892501D02*
G75*
G02*
X170197500Y-89092500I1900000J-99999D01*
G01*
X174197500Y-89092500D02*
G75*
G03*
X174797500Y-88542500I25000J575000D01*
G01*
X167197500Y-85592500D02*
G75*
G03*
X164997500Y-87792500I0J-2200000D01*
G01*
X167847500Y-91592500D02*
G75*
G03*
X168197500Y-91042500I-100000J450000D01*
G01*
X101185200Y-91579800D02*
X98335200Y-91579800D01*
X98335200Y-91579800D02*
X98335200Y-87779800D01*
X100535200Y-85579800D02*
X108135200Y-85579800D01*
X108135200Y-85579800D02*
X108135200Y-88529800D01*
X107535200Y-89079800D02*
X103535200Y-89079800D01*
X101535201Y-90879801D02*
G75*
G02*
X103535200Y-89079800I1900000J-99999D01*
G01*
X107535200Y-89079800D02*
G75*
G03*
X108135200Y-88529800I25000J575000D01*
G01*
X100535200Y-85579800D02*
G75*
G03*
X98335200Y-87779800I0J-2200000D01*
G01*
X101185200Y-91579800D02*
G75*
G03*
X101535200Y-91029800I-100000J450000D01*
G01*
X82135200Y-91579800D02*
X79285200Y-91579800D01*
X79285200Y-91579800D02*
X79285200Y-87779800D01*
X81485200Y-85579800D02*
X89085200Y-85579800D01*
X89085200Y-85579800D02*
X89085200Y-88529800D01*
X88485200Y-89079800D02*
X84485200Y-89079800D01*
X82485201Y-90879801D02*
G75*
G02*
X84485200Y-89079800I1900000J-99999D01*
G01*
X88485200Y-89079800D02*
G75*
G03*
X89085200Y-88529800I25000J575000D01*
G01*
X81485200Y-85579800D02*
G75*
G03*
X79285200Y-87779800I0J-2200000D01*
G01*
X82135200Y-91579800D02*
G75*
G03*
X82485200Y-91029800I-100000J450000D01*
G01*
X44035200Y-91579800D02*
X41185200Y-91579800D01*
X41185200Y-91579800D02*
X41185200Y-87779800D01*
X43385200Y-85579800D02*
X50985200Y-85579800D01*
X50985200Y-85579800D02*
X50985200Y-88529800D01*
X50385200Y-89079800D02*
X46385200Y-89079800D01*
X44385201Y-90879801D02*
G75*
G02*
X46385200Y-89079800I1900000J-99999D01*
G01*
X50385200Y-89079800D02*
G75*
G03*
X50985200Y-88529800I25000J575000D01*
G01*
X43385200Y-85579800D02*
G75*
G03*
X41185200Y-87779800I0J-2200000D01*
G01*
X44035200Y-91579800D02*
G75*
G03*
X44385200Y-91029800I-100000J450000D01*
G01*
X286439619Y-68213266D02*
X286915809Y-68546600D01*
X286439619Y-68784695D02*
X287439619Y-68784695D01*
X287439619Y-68403742D01*
X287392000Y-68308504D01*
X287344380Y-68260885D01*
X287249142Y-68213266D01*
X287106285Y-68213266D01*
X287011047Y-68260885D01*
X286963428Y-68308504D01*
X286915809Y-68403742D01*
X286915809Y-68784695D01*
X287011047Y-67641838D02*
X287058666Y-67737076D01*
X287106285Y-67784695D01*
X287201523Y-67832314D01*
X287249142Y-67832314D01*
X287344380Y-67784695D01*
X287392000Y-67737076D01*
X287439619Y-67641838D01*
X287439619Y-67451361D01*
X287392000Y-67356123D01*
X287344380Y-67308504D01*
X287249142Y-67260885D01*
X287201523Y-67260885D01*
X287106285Y-67308504D01*
X287058666Y-67356123D01*
X287011047Y-67451361D01*
X287011047Y-67641838D01*
X286963428Y-67737076D01*
X286915809Y-67784695D01*
X286820571Y-67832314D01*
X286630095Y-67832314D01*
X286534857Y-67784695D01*
X286487238Y-67737076D01*
X286439619Y-67641838D01*
X286439619Y-67451361D01*
X286487238Y-67356123D01*
X286534857Y-67308504D01*
X286630095Y-67260885D01*
X286820571Y-67260885D01*
X286915809Y-67308504D01*
X286963428Y-67356123D01*
X287011047Y-67451361D01*
M02*
