%TF.GenerationSoftware,KiCad,Pcbnew,(6.0.6)*%
%TF.CreationDate,2023-05-08T18:17:21+05:30*%
%TF.ProjectId,mysterium-pcb,6d797374-6572-4697-956d-2d7063622e6b,rev?*%
%TF.SameCoordinates,Original*%
%TF.FileFunction,Soldermask,Bot*%
%TF.FilePolarity,Negative*%
%FSLAX46Y46*%
G04 Gerber Fmt 4.6, Leading zero omitted, Abs format (unit mm)*
G04 Created by KiCad (PCBNEW (6.0.6)) date 2023-05-08 18:17:21*
%MOMM*%
%LPD*%
G01*
G04 APERTURE LIST*
G04 Aperture macros list*
%AMRoundRect*
0 Rectangle with rounded corners*
0 $1 Rounding radius*
0 $2 $3 $4 $5 $6 $7 $8 $9 X,Y pos of 4 corners*
0 Add a 4 corners polygon primitive as box body*
4,1,4,$2,$3,$4,$5,$6,$7,$8,$9,$2,$3,0*
0 Add four circle primitives for the rounded corners*
1,1,$1+$1,$2,$3*
1,1,$1+$1,$4,$5*
1,1,$1+$1,$6,$7*
1,1,$1+$1,$8,$9*
0 Add four rect primitives between the rounded corners*
20,1,$1+$1,$2,$3,$4,$5,0*
20,1,$1+$1,$4,$5,$6,$7,0*
20,1,$1+$1,$6,$7,$8,$9,0*
20,1,$1+$1,$8,$9,$2,$3,0*%
G04 Aperture macros list end*
%ADD10C,3.048000*%
%ADD11C,3.987800*%
%ADD12C,3.000000*%
%ADD13C,1.701800*%
%ADD14R,3.000000X2.500000*%
%ADD15R,1.200000X1.200000*%
%ADD16C,1.200000*%
%ADD17R,1.800000X1.800000*%
%ADD18C,1.800000*%
%ADD19R,1.600000X1.600000*%
%ADD20O,1.600000X1.600000*%
%ADD21C,4.400000*%
%ADD22C,2.000000*%
%ADD23C,1.600000*%
%ADD24C,1.400000*%
%ADD25R,1.700000X1.700000*%
%ADD26C,1.700000*%
%ADD27O,1.400000X1.400000*%
%ADD28O,0.650000X1.000000*%
%ADD29O,0.900000X1.700000*%
%ADD30O,0.900000X2.400000*%
%ADD31C,1.500000*%
%ADD32O,1.700000X1.700000*%
%ADD33R,1.524000X1.524000*%
%ADD34RoundRect,0.249999X0.450001X-0.350001X0.450001X0.350001X-0.450001X0.350001X-0.450001X-0.350001X0*%
G04 APERTURE END LIST*
D10*
%TO.C,ST83*%
X118110000Y-199402700D03*
X218109800Y-199402700D03*
D11*
X118110000Y-184162700D03*
X218109800Y-184162700D03*
%TD*%
D12*
%TO.C,SW17*%
X68275200Y-111112300D03*
D13*
X70815200Y-116192300D03*
D11*
X65735200Y-116192300D03*
D13*
X60655200Y-116192300D03*
D12*
X61925200Y-113652300D03*
D14*
X72335200Y-111112300D03*
X57935200Y-113652300D03*
%TD*%
D13*
%TO.C,SW41*%
X213677500Y-135255000D03*
D12*
X204787500Y-132715000D03*
D13*
X203517500Y-135255000D03*
D11*
X208597500Y-135255000D03*
D12*
X211137500Y-130175000D03*
D14*
X215197500Y-130175000D03*
X200797500Y-132715000D03*
%TD*%
D10*
%TO.C,ST84*%
X122872500Y-199390000D03*
X237172500Y-199390000D03*
D11*
X237172500Y-184150000D03*
X122872500Y-184150000D03*
%TD*%
D15*
%TO.C,C3*%
X217945459Y-67911544D03*
D16*
X217945459Y-66411544D03*
%TD*%
D17*
%TO.C,LED1*%
X217595499Y-59524900D03*
D18*
X220135499Y-59524900D03*
%TD*%
D19*
%TO.C,D28*%
X321967188Y-70054948D03*
D20*
X321967188Y-75134948D03*
%TD*%
D19*
%TO.C,D36*%
X108530629Y-67574655D03*
D20*
X108530629Y-72654655D03*
%TD*%
D19*
%TO.C,D11*%
X297229706Y-70054948D03*
D20*
X297229706Y-75134948D03*
%TD*%
D19*
%TO.C,D14*%
X371442152Y-70054948D03*
D20*
X371442152Y-75134948D03*
%TD*%
D19*
%TO.C,D90*%
X336102892Y-70054948D03*
D20*
X336102892Y-75134948D03*
%TD*%
D19*
%TO.C,D92*%
X339636818Y-59680499D03*
D20*
X339636818Y-64760499D03*
%TD*%
D19*
%TO.C,U1*%
X233616500Y-74485500D03*
D20*
X236156500Y-74485500D03*
X238696500Y-74485500D03*
X241236500Y-74485500D03*
X243776500Y-74485500D03*
X246316500Y-74485500D03*
X248856500Y-74485500D03*
X251396500Y-74485500D03*
X253936500Y-74485500D03*
X256476500Y-74485500D03*
X259016500Y-74485500D03*
X261556500Y-74485500D03*
X264096500Y-74485500D03*
X266636500Y-74485500D03*
X269176500Y-74485500D03*
X271716500Y-74485500D03*
X274256500Y-74485500D03*
X276796500Y-74485500D03*
X279336500Y-74485500D03*
X281876500Y-74485500D03*
X281876500Y-59245500D03*
X279336500Y-59245500D03*
X276796500Y-59245500D03*
X274256500Y-59245500D03*
X271716500Y-59245500D03*
X269176500Y-59245500D03*
X266636500Y-59245500D03*
X264096500Y-59245500D03*
X261556500Y-59245500D03*
X259016500Y-59245500D03*
X256476500Y-59245500D03*
X253936500Y-59245500D03*
X251396500Y-59245500D03*
X248856500Y-59245500D03*
X246316500Y-59245500D03*
X243776500Y-59245500D03*
X241236500Y-59245500D03*
X238696500Y-59245500D03*
X236156500Y-59245500D03*
X233616500Y-59245500D03*
%TD*%
D21*
%TO.C,REF\u002A\u002A*%
X41147500Y-59313500D03*
%TD*%
%TO.C,REF\u002A\u002A*%
X41147500Y-78063500D03*
%TD*%
%TO.C,REF\u002A\u002A*%
X380810000Y-78063500D03*
%TD*%
%TO.C,REF\u002A\u002A*%
X380810000Y-59313500D03*
%TD*%
%TO.C,REF\u002A\u002A*%
X134734300Y-59313500D03*
%TD*%
%TO.C,REF\u002A\u002A*%
X211016251Y-104152700D03*
%TD*%
%TO.C,REF\u002A\u002A*%
X211018120Y-192186560D03*
%TD*%
%TO.C,REF\u002A\u002A*%
X335597500Y-104152700D03*
%TD*%
%TO.C,REF\u002A\u002A*%
X86360000Y-104152700D03*
%TD*%
%TO.C,REF\u002A\u002A*%
X78257400Y-165125400D03*
%TD*%
%TO.C,REF\u002A\u002A*%
X328583688Y-149669500D03*
%TD*%
%TO.C,REF\u002A\u002A*%
X380120412Y-149669500D03*
%TD*%
%TO.C,REF\u002A\u002A*%
X328583688Y-177904900D03*
%TD*%
%TO.C,REF\u002A\u002A*%
X380120412Y-177904900D03*
%TD*%
D22*
%TO.C,BOOT1*%
X177523197Y-57315100D03*
X171023197Y-57315100D03*
X171023197Y-61815100D03*
X177523197Y-61815100D03*
%TD*%
D23*
%TO.C,C1*%
X273951700Y-80200500D03*
X273951700Y-77700500D03*
%TD*%
%TO.C,C2*%
X259626100Y-80200500D03*
X259626100Y-77700500D03*
%TD*%
%TO.C,C4*%
X258940300Y-56756300D03*
X253940300Y-56756300D03*
%TD*%
%TO.C,C5*%
X252082300Y-76923900D03*
X257082300Y-76923900D03*
%TD*%
D19*
%TO.C,D0*%
X46981402Y-65094362D03*
D20*
X46981402Y-70174362D03*
%TD*%
D21*
%TO.C,REF\u002A\u002A*%
X287223200Y-59313500D03*
%TD*%
D19*
%TO.C,D1*%
X89094031Y-67574655D03*
D20*
X89094031Y-72654655D03*
%TD*%
D19*
%TO.C,D2*%
X105291196Y-65094362D03*
D20*
X105291196Y-70174362D03*
%TD*%
D19*
%TO.C,D3*%
X121488361Y-70054948D03*
D20*
X121488361Y-75134948D03*
%TD*%
D19*
%TO.C,D4*%
X137685526Y-67574655D03*
D20*
X137685526Y-72654655D03*
%TD*%
D19*
%TO.C,D5*%
X170079856Y-70054948D03*
D20*
X170079856Y-75134948D03*
%TD*%
D19*
%TO.C,D6*%
X202474222Y-65094362D03*
D20*
X202474222Y-70174362D03*
%TD*%
D19*
%TO.C,D7*%
X304297558Y-70054948D03*
D20*
X304297558Y-75134948D03*
%TD*%
D19*
%TO.C,D8*%
X304297558Y-59680499D03*
D20*
X304297558Y-64760499D03*
%TD*%
D19*
%TO.C,D9*%
X300763632Y-70054948D03*
D20*
X300763632Y-75134948D03*
%TD*%
D19*
%TO.C,D10*%
X300763632Y-59680499D03*
D20*
X300763632Y-64760499D03*
%TD*%
D19*
%TO.C,D12*%
X297229706Y-59680499D03*
D20*
X297229706Y-64760499D03*
%TD*%
D19*
%TO.C,D13*%
X336102892Y-59680499D03*
D20*
X336102892Y-64760499D03*
%TD*%
D19*
%TO.C,D15*%
X374976098Y-70054948D03*
D20*
X374976098Y-75134948D03*
%TD*%
D19*
%TO.C,D16*%
X50220835Y-67574655D03*
D20*
X50220835Y-72654655D03*
%TD*%
D19*
%TO.C,D17*%
X72896866Y-70054948D03*
D20*
X72896866Y-75134948D03*
%TD*%
D19*
%TO.C,D18*%
X85854598Y-65094362D03*
D20*
X85854598Y-70174362D03*
%TD*%
D19*
%TO.C,D19*%
X102051763Y-70054948D03*
D20*
X102051763Y-75134948D03*
%TD*%
D19*
%TO.C,D20*%
X118248928Y-67574655D03*
D20*
X118248928Y-72654655D03*
%TD*%
D19*
%TO.C,D21*%
X134446093Y-65094362D03*
D20*
X134446093Y-70174362D03*
%TD*%
D19*
%TO.C,D22*%
X153882691Y-65094362D03*
D20*
X153882691Y-70174362D03*
%TD*%
D19*
%TO.C,D23*%
X166840423Y-67574655D03*
D20*
X166840423Y-72654655D03*
%TD*%
D19*
%TO.C,D24*%
X173319289Y-65094362D03*
D20*
X173319289Y-70174362D03*
%TD*%
D19*
%TO.C,D25*%
X189516466Y-70054948D03*
D20*
X189516466Y-75134948D03*
%TD*%
D19*
%TO.C,D26*%
X205713661Y-67373500D03*
D20*
X205713661Y-72453500D03*
%TD*%
D19*
%TO.C,D27*%
X307831484Y-59680499D03*
D20*
X307831484Y-64760499D03*
%TD*%
D19*
%TO.C,D29*%
X332568966Y-70054948D03*
D20*
X332568966Y-75134948D03*
%TD*%
D19*
%TO.C,D30*%
X360840374Y-70054948D03*
D20*
X360840374Y-75134948D03*
%TD*%
D19*
%TO.C,D31*%
X364374300Y-70054948D03*
D20*
X364374300Y-75134948D03*
%TD*%
D19*
%TO.C,D32*%
X367908226Y-70054948D03*
D20*
X367908226Y-75134948D03*
%TD*%
D19*
%TO.C,D33*%
X53460268Y-70054948D03*
D20*
X53460268Y-75134948D03*
%TD*%
D19*
%TO.C,D34*%
X76136299Y-65094362D03*
D20*
X76136299Y-70174362D03*
%TD*%
D19*
%TO.C,D35*%
X92333464Y-70054948D03*
D20*
X92333464Y-75134948D03*
%TD*%
D19*
%TO.C,D37*%
X124727794Y-65094362D03*
D20*
X124727794Y-70174362D03*
%TD*%
D19*
%TO.C,D38*%
X140924959Y-70054948D03*
D20*
X140924959Y-75134948D03*
%TD*%
D19*
%TO.C,D39*%
X157122124Y-67574655D03*
D20*
X157122124Y-72654655D03*
%TD*%
D19*
%TO.C,D40*%
X176558722Y-67574655D03*
D20*
X176558722Y-72654655D03*
%TD*%
D19*
%TO.C,D41*%
X186277027Y-67373500D03*
D20*
X186277027Y-72453500D03*
%TD*%
D19*
%TO.C,D42*%
X192755905Y-65094362D03*
D20*
X192755905Y-70174362D03*
%TD*%
D19*
%TO.C,D43*%
X307831484Y-70054948D03*
D20*
X307831484Y-75134948D03*
%TD*%
D19*
%TO.C,D44*%
X321967188Y-59680499D03*
D20*
X321967188Y-64760499D03*
%TD*%
D19*
%TO.C,D45*%
X325501114Y-59680499D03*
D20*
X325501114Y-64760499D03*
%TD*%
D19*
%TO.C,D46*%
X332568966Y-59680499D03*
D20*
X332568966Y-64760499D03*
%TD*%
D19*
%TO.C,D47*%
X350238596Y-70054948D03*
D20*
X350238596Y-75134948D03*
%TD*%
D19*
%TO.C,D48*%
X353772522Y-70054948D03*
D20*
X353772522Y-75134948D03*
%TD*%
D19*
%TO.C,D49*%
X357306448Y-70054948D03*
D20*
X357306448Y-75134948D03*
%TD*%
D19*
%TO.C,D50*%
X56699701Y-65094362D03*
D20*
X56699701Y-70174362D03*
%TD*%
D19*
%TO.C,D52*%
X79375732Y-67574655D03*
D20*
X79375732Y-72654655D03*
%TD*%
D19*
%TO.C,D53*%
X95572897Y-65094362D03*
D20*
X95572897Y-70174362D03*
%TD*%
D19*
%TO.C,D54*%
X111770062Y-70054948D03*
D20*
X111770062Y-75134948D03*
%TD*%
D19*
%TO.C,D55*%
X127967227Y-67574655D03*
D20*
X127967227Y-72654655D03*
%TD*%
D19*
%TO.C,D56*%
X144164392Y-65094362D03*
D20*
X144164392Y-70174362D03*
%TD*%
D19*
%TO.C,D57*%
X160361557Y-70054948D03*
D20*
X160361557Y-75134948D03*
%TD*%
D19*
%TO.C,D58*%
X179798155Y-70054948D03*
D20*
X179798155Y-75134948D03*
%TD*%
D19*
%TO.C,D59*%
X195995344Y-67373500D03*
D20*
X195995344Y-72453500D03*
%TD*%
D19*
%TO.C,D60*%
X208953100Y-70054948D03*
D20*
X208953100Y-75134948D03*
%TD*%
D19*
%TO.C,D61*%
X311365410Y-59680499D03*
D20*
X311365410Y-64760499D03*
%TD*%
D19*
%TO.C,D62*%
X318433262Y-70054948D03*
D20*
X318433262Y-75134948D03*
%TD*%
D19*
%TO.C,D63*%
X329035040Y-70054948D03*
D20*
X329035040Y-75134948D03*
%TD*%
D19*
%TO.C,D64*%
X59939134Y-67574655D03*
D20*
X59939134Y-72654655D03*
%TD*%
D19*
%TO.C,D65*%
X82615165Y-70054948D03*
D20*
X82615165Y-75134948D03*
%TD*%
D19*
%TO.C,D66*%
X98812330Y-67574655D03*
D20*
X98812330Y-72654655D03*
%TD*%
D19*
%TO.C,D67*%
X115009495Y-65094362D03*
D20*
X115009495Y-70174362D03*
%TD*%
D19*
%TO.C,D68*%
X131206660Y-70054948D03*
D20*
X131206660Y-75134948D03*
%TD*%
D19*
%TO.C,D69*%
X147403825Y-67574655D03*
D20*
X147403825Y-72654655D03*
%TD*%
D19*
%TO.C,D70*%
X163600990Y-65094362D03*
D20*
X163600990Y-70174362D03*
%TD*%
D19*
%TO.C,D71*%
X183037588Y-65094362D03*
D20*
X183037588Y-70174362D03*
%TD*%
D19*
%TO.C,D72*%
X199234783Y-70054948D03*
D20*
X199234783Y-75134948D03*
%TD*%
D19*
%TO.C,D73*%
X311365410Y-70054948D03*
D20*
X311365410Y-75134948D03*
%TD*%
D19*
%TO.C,D74*%
X318433262Y-59680499D03*
D20*
X318433262Y-64760499D03*
%TD*%
D19*
%TO.C,D75*%
X329035040Y-59680499D03*
D20*
X329035040Y-64760499D03*
%TD*%
D19*
%TO.C,D76*%
X346704670Y-70054948D03*
D20*
X346704670Y-75134948D03*
%TD*%
D19*
%TO.C,D77*%
X63178567Y-70054948D03*
D20*
X63178567Y-75134948D03*
%TD*%
D19*
%TO.C,D79*%
X66418000Y-65094362D03*
D20*
X66418000Y-70174362D03*
%TD*%
D19*
%TO.C,D81*%
X69657433Y-67574655D03*
D20*
X69657433Y-72654655D03*
%TD*%
D19*
%TO.C,D83*%
X150643258Y-70054948D03*
D20*
X150643258Y-75134948D03*
%TD*%
D19*
%TO.C,D85*%
X314899336Y-59680499D03*
D20*
X314899336Y-64760499D03*
%TD*%
D19*
%TO.C,D86*%
X314899336Y-70054948D03*
D20*
X314899336Y-75134948D03*
%TD*%
D19*
%TO.C,D88*%
X325501114Y-70054948D03*
D20*
X325501114Y-75134948D03*
%TD*%
D19*
%TO.C,D93*%
X339636818Y-70054948D03*
D20*
X339636818Y-75134948D03*
%TD*%
D19*
%TO.C,D94*%
X343170744Y-70054948D03*
D20*
X343170744Y-75134948D03*
%TD*%
D19*
%TO.C,D95*%
X216420700Y-70802500D03*
D20*
X216420700Y-75882500D03*
%TD*%
D19*
%TO.C,D96*%
X219367100Y-70802500D03*
D20*
X219367100Y-75882500D03*
%TD*%
D24*
%TO.C,F1*%
X203515397Y-62278100D03*
X203515397Y-57178100D03*
%TD*%
D25*
%TO.C,J1*%
X188688397Y-57696100D03*
D26*
X188688397Y-60236100D03*
X186148397Y-57696100D03*
X186148397Y-60236100D03*
X183608397Y-57696100D03*
X183608397Y-60236100D03*
%TD*%
D24*
%TO.C,R1*%
X229984300Y-65842226D03*
D27*
X222364300Y-65842226D03*
%TD*%
D24*
%TO.C,R2*%
X229984300Y-68353189D03*
D27*
X222364300Y-68353189D03*
%TD*%
D24*
%TO.C,R3*%
X229984300Y-70864152D03*
D27*
X222364300Y-70864152D03*
%TD*%
D24*
%TO.C,R4*%
X229984300Y-73375115D03*
D27*
X222364300Y-73375115D03*
%TD*%
D24*
%TO.C,R5*%
X229984300Y-75886078D03*
D27*
X222364300Y-75886078D03*
%TD*%
D24*
%TO.C,R6*%
X229984300Y-63331263D03*
D27*
X222364300Y-63331263D03*
%TD*%
D24*
%TO.C,R7*%
X229984300Y-60820300D03*
D27*
X222364300Y-60820300D03*
%TD*%
D22*
%TO.C,RESET1*%
X158284597Y-57289700D03*
X164784597Y-57289700D03*
X158284597Y-61789700D03*
X164784597Y-61789700D03*
%TD*%
D11*
%TO.C,SW0*%
X46685200Y-92379800D03*
D13*
X51765200Y-92379800D03*
D12*
X42875200Y-89839800D03*
D13*
X41605200Y-92379800D03*
D12*
X49225200Y-87299800D03*
D14*
X53285200Y-87299800D03*
X38885200Y-89839800D03*
%TD*%
D12*
%TO.C,SW1*%
X87325200Y-87299800D03*
D11*
X84785200Y-92379800D03*
D13*
X89865200Y-92379800D03*
D12*
X80975200Y-89839800D03*
D13*
X79705200Y-92379800D03*
D14*
X91385200Y-87299800D03*
X76985200Y-89839800D03*
%TD*%
D13*
%TO.C,SW2*%
X98755200Y-92379800D03*
D11*
X103835200Y-92379800D03*
D13*
X108915200Y-92379800D03*
D12*
X100025200Y-89839800D03*
X106375200Y-87299800D03*
D14*
X110435200Y-87299800D03*
X96035200Y-89839800D03*
%TD*%
D12*
%TO.C,SW3*%
X125425200Y-87299800D03*
D11*
X122885200Y-92379800D03*
D13*
X127965200Y-92379800D03*
D12*
X119075200Y-89839800D03*
D13*
X117805200Y-92379800D03*
D14*
X129485200Y-87299800D03*
X115085200Y-89839800D03*
%TD*%
D13*
%TO.C,SW4*%
X147007580Y-92382340D03*
D12*
X138117580Y-89842340D03*
D13*
X136847580Y-92382340D03*
D11*
X141927580Y-92382340D03*
D12*
X144467580Y-87302340D03*
D14*
X148527580Y-87302340D03*
X134127580Y-89842340D03*
%TD*%
D13*
%TO.C,SW5*%
X165417500Y-92392500D03*
D12*
X173037500Y-87312500D03*
D11*
X170497500Y-92392500D03*
D12*
X166687500Y-89852500D03*
D13*
X175577500Y-92392500D03*
D14*
X177097500Y-87312500D03*
X162697500Y-89852500D03*
%TD*%
D11*
%TO.C,SW6*%
X189547500Y-92392500D03*
D12*
X185737500Y-89852500D03*
X192087500Y-87312500D03*
D13*
X184467500Y-92392500D03*
X194627500Y-92392500D03*
D14*
X196147500Y-87312500D03*
X181747500Y-89852500D03*
%TD*%
D12*
%TO.C,SW7*%
X211137500Y-87312500D03*
D13*
X213677500Y-92392500D03*
D12*
X204787500Y-89852500D03*
D11*
X208597500Y-92392500D03*
D13*
X203517500Y-92392500D03*
D14*
X215197500Y-87312500D03*
X200797500Y-89852500D03*
%TD*%
D11*
%TO.C,SW8*%
X227647500Y-92392500D03*
D12*
X223837500Y-89852500D03*
D13*
X222567500Y-92392500D03*
X232727500Y-92392500D03*
D12*
X230187500Y-87312500D03*
D14*
X234247500Y-87312500D03*
X219847500Y-89852500D03*
%TD*%
D11*
%TO.C,SW9*%
X256235200Y-92379800D03*
D12*
X258775200Y-87299800D03*
D13*
X261315200Y-92379800D03*
D12*
X252425200Y-89839800D03*
D13*
X251155200Y-92379800D03*
D14*
X262835200Y-87299800D03*
X248435200Y-89839800D03*
%TD*%
D13*
%TO.C,SW10*%
X270192500Y-92379800D03*
D12*
X277812500Y-87299800D03*
D11*
X275272500Y-92379800D03*
D12*
X271462500Y-89839800D03*
D13*
X280352500Y-92379800D03*
D14*
X281872500Y-87299800D03*
X267472500Y-89839800D03*
%TD*%
D11*
%TO.C,SW11*%
X294335200Y-92379800D03*
D12*
X296875200Y-87299800D03*
X290525200Y-89839800D03*
D13*
X289255200Y-92379800D03*
X299415200Y-92379800D03*
D14*
X300935200Y-87299800D03*
X286535200Y-89839800D03*
%TD*%
D11*
%TO.C,SW12*%
X313385200Y-92379800D03*
D13*
X308305200Y-92379800D03*
D12*
X309575200Y-89839800D03*
X315925200Y-87299800D03*
D13*
X318465200Y-92379800D03*
D14*
X319985200Y-87299800D03*
X305585200Y-89839800D03*
%TD*%
D11*
%TO.C,SW13*%
X337197700Y-92379800D03*
D12*
X339737700Y-87299800D03*
D13*
X342277700Y-92379800D03*
D12*
X333387700Y-89839800D03*
D13*
X332117700Y-92379800D03*
D14*
X343797700Y-87299800D03*
X329397700Y-89839800D03*
%TD*%
D11*
%TO.C,SW14*%
X356235000Y-92379800D03*
D13*
X351155000Y-92379800D03*
D12*
X352425000Y-89839800D03*
D13*
X361315000Y-92379800D03*
D12*
X358775000Y-87299800D03*
D14*
X362835000Y-87299800D03*
X348435000Y-89839800D03*
%TD*%
D13*
%TO.C,SW15*%
X380365000Y-92379800D03*
D12*
X377825000Y-87299800D03*
X371475000Y-89839800D03*
D13*
X370205000Y-92379800D03*
D11*
X375285000Y-92379800D03*
D14*
X381885000Y-87299800D03*
X367485000Y-89839800D03*
%TD*%
D12*
%TO.C,SW16*%
X49225200Y-111112300D03*
D11*
X46685200Y-116192300D03*
D13*
X41605200Y-116192300D03*
X51765200Y-116192300D03*
D12*
X42875200Y-113652300D03*
D14*
X53285200Y-111112300D03*
X38885200Y-113652300D03*
%TD*%
D13*
%TO.C,SW18*%
X79705200Y-116192300D03*
X89865200Y-116192300D03*
D12*
X80975200Y-113652300D03*
D11*
X84785200Y-116192300D03*
D12*
X87325200Y-111112300D03*
D14*
X91385200Y-111112300D03*
X76985200Y-113652300D03*
%TD*%
D13*
%TO.C,SW19*%
X98755200Y-116192300D03*
D12*
X100025200Y-113652300D03*
D13*
X108915200Y-116192300D03*
D11*
X103835200Y-116192300D03*
D12*
X106375200Y-111112300D03*
D14*
X110435200Y-111112300D03*
X96035200Y-113652300D03*
%TD*%
D13*
%TO.C,SW20*%
X117805200Y-116192300D03*
D12*
X119075200Y-113652300D03*
D11*
X122885200Y-116192300D03*
D12*
X125425200Y-111112300D03*
D13*
X127965200Y-116192300D03*
D14*
X129485200Y-111112300D03*
X115085200Y-113652300D03*
%TD*%
D13*
%TO.C,SW21*%
X136855200Y-116192300D03*
D12*
X138125200Y-113652300D03*
D13*
X147015200Y-116192300D03*
D11*
X141935200Y-116192300D03*
D12*
X144475200Y-111112300D03*
D14*
X148535200Y-111112300D03*
X134135200Y-113652300D03*
%TD*%
D12*
%TO.C,SW22*%
X163525200Y-111112300D03*
D13*
X166065200Y-116192300D03*
D12*
X157175200Y-113652300D03*
D11*
X160985200Y-116192300D03*
D13*
X155905200Y-116192300D03*
D14*
X167585200Y-111112300D03*
X153185200Y-113652300D03*
%TD*%
D13*
%TO.C,SW23*%
X174955200Y-116192300D03*
D11*
X180035200Y-116192300D03*
D13*
X185115200Y-116192300D03*
D12*
X176225200Y-113652300D03*
X182575200Y-111112300D03*
D14*
X186635200Y-111112300D03*
X172235200Y-113652300D03*
%TD*%
D13*
%TO.C,SW24*%
X204165200Y-116192300D03*
D12*
X201625200Y-111112300D03*
D11*
X199085200Y-116192300D03*
D13*
X194005200Y-116192300D03*
D12*
X195275200Y-113652300D03*
D14*
X205685200Y-111112300D03*
X191285200Y-113652300D03*
%TD*%
D13*
%TO.C,SW25*%
X213055200Y-116192300D03*
D11*
X218135200Y-116192300D03*
D13*
X223215200Y-116192300D03*
D12*
X214325200Y-113652300D03*
X220675200Y-111112300D03*
D14*
X224735200Y-111112300D03*
X210335200Y-113652300D03*
%TD*%
D13*
%TO.C,SW26*%
X242265200Y-116192300D03*
D11*
X237185200Y-116192300D03*
D12*
X233375200Y-113652300D03*
X239725200Y-111112300D03*
D13*
X232105200Y-116192300D03*
D14*
X243785200Y-111112300D03*
X229385200Y-113652300D03*
%TD*%
D13*
%TO.C,SW27*%
X251155200Y-116192300D03*
D12*
X258775200Y-111112300D03*
D11*
X256235200Y-116192300D03*
D12*
X252425200Y-113652300D03*
D13*
X261315200Y-116192300D03*
D14*
X262835200Y-111112300D03*
X248435200Y-113652300D03*
%TD*%
D13*
%TO.C,SW28*%
X280365200Y-116192300D03*
D12*
X271475200Y-113652300D03*
D11*
X275285200Y-116192300D03*
D12*
X277825200Y-111112300D03*
D13*
X270205200Y-116192300D03*
D14*
X281885200Y-111112300D03*
X267485200Y-113652300D03*
%TD*%
D12*
%TO.C,SW29*%
X306400200Y-111112300D03*
D13*
X308940200Y-116192300D03*
D12*
X300050200Y-113652300D03*
D11*
X315798200Y-124447300D03*
D10*
X315798200Y-109207300D03*
X291922200Y-109207300D03*
D13*
X298780200Y-116192300D03*
D11*
X303860200Y-116192300D03*
X291922200Y-124447300D03*
D14*
X310460200Y-111112300D03*
X296060200Y-113652300D03*
%TD*%
D13*
%TO.C,SW30*%
X332105000Y-116192300D03*
X342265000Y-116192300D03*
D12*
X333375000Y-113652300D03*
D11*
X337185000Y-116192300D03*
D12*
X339725000Y-111112300D03*
D14*
X343785000Y-111112300D03*
X329385000Y-113652300D03*
%TD*%
D12*
%TO.C,SW31*%
X358775000Y-111112300D03*
D11*
X356235000Y-116192300D03*
D13*
X361315000Y-116192300D03*
D12*
X352425000Y-113652300D03*
D13*
X351155000Y-116192300D03*
D14*
X362835000Y-111112300D03*
X348435000Y-113652300D03*
%TD*%
D11*
%TO.C,SW32*%
X375285000Y-116192300D03*
D13*
X380365000Y-116192300D03*
D12*
X377825000Y-111112300D03*
X371475000Y-113652300D03*
D13*
X370205000Y-116192300D03*
D14*
X381885000Y-111112300D03*
X367485000Y-113652300D03*
%TD*%
D12*
%TO.C,SW33*%
X53975000Y-130175000D03*
D13*
X46355000Y-135255000D03*
X56515000Y-135255000D03*
D12*
X47625000Y-132715000D03*
D11*
X51435000Y-135255000D03*
D14*
X58035000Y-130175000D03*
X43635000Y-132715000D03*
%TD*%
D12*
%TO.C,SW34*%
X77787500Y-130175000D03*
D11*
X75247500Y-135255000D03*
D13*
X80327500Y-135255000D03*
D12*
X71437500Y-132715000D03*
D13*
X70167500Y-135255000D03*
D14*
X81847500Y-130175000D03*
X67447500Y-132715000D03*
%TD*%
D12*
%TO.C,SW35*%
X90487500Y-132715000D03*
D13*
X89217500Y-135255000D03*
X99377500Y-135255000D03*
D11*
X94297500Y-135255000D03*
D12*
X96837500Y-130175000D03*
D14*
X100897500Y-130175000D03*
X86497500Y-132715000D03*
%TD*%
D12*
%TO.C,SW36*%
X115887500Y-130175000D03*
D11*
X113347500Y-135255000D03*
D13*
X118427500Y-135255000D03*
X108267500Y-135255000D03*
D12*
X109537500Y-132715000D03*
D14*
X119947500Y-130175000D03*
X105547500Y-132715000D03*
%TD*%
D11*
%TO.C,SW37*%
X132397500Y-135255000D03*
D12*
X134937500Y-130175000D03*
X128587500Y-132715000D03*
D13*
X137477500Y-135255000D03*
X127317500Y-135255000D03*
D14*
X138997500Y-130175000D03*
X124597500Y-132715000D03*
%TD*%
D13*
%TO.C,SW38*%
X146367500Y-135255000D03*
D11*
X151447500Y-135255000D03*
D13*
X156527500Y-135255000D03*
D12*
X153987500Y-130175000D03*
X147637500Y-132715000D03*
D14*
X158047500Y-130175000D03*
X143647500Y-132715000D03*
%TD*%
D13*
%TO.C,SW39*%
X165417500Y-135255000D03*
D11*
X170497500Y-135255000D03*
D12*
X173037500Y-130175000D03*
X166687500Y-132715000D03*
D13*
X175577500Y-135255000D03*
D14*
X177097500Y-130175000D03*
X162697500Y-132715000D03*
%TD*%
D12*
%TO.C,SW40*%
X185737500Y-132715000D03*
D11*
X189547500Y-135255000D03*
D12*
X192087500Y-130175000D03*
D13*
X194627500Y-135255000D03*
X184467500Y-135255000D03*
D14*
X196147500Y-130175000D03*
X181747500Y-132715000D03*
%TD*%
D11*
%TO.C,SW42*%
X227647500Y-135255000D03*
D12*
X223837500Y-132715000D03*
D13*
X232727500Y-135255000D03*
X222567500Y-135255000D03*
D12*
X230187500Y-130175000D03*
D14*
X234247500Y-130175000D03*
X219847500Y-132715000D03*
%TD*%
D13*
%TO.C,SW43*%
X251777500Y-135255000D03*
X241617500Y-135255000D03*
D12*
X249237500Y-130175000D03*
D11*
X246697500Y-135255000D03*
D12*
X242887500Y-132715000D03*
D14*
X253297500Y-130175000D03*
X238897500Y-132715000D03*
%TD*%
D13*
%TO.C,SW44*%
X270827500Y-135255000D03*
X260667500Y-135255000D03*
D11*
X265747500Y-135255000D03*
D12*
X268287500Y-130175000D03*
X261937500Y-132715000D03*
D14*
X272347500Y-130175000D03*
X257947500Y-132715000D03*
%TD*%
D13*
%TO.C,SW45*%
X289877500Y-135255000D03*
D12*
X287337500Y-130175000D03*
X280987500Y-132715000D03*
D13*
X279717500Y-135255000D03*
D11*
X284797500Y-135255000D03*
D14*
X291397500Y-130175000D03*
X276997500Y-132715000D03*
%TD*%
D12*
%TO.C,SW46*%
X311162700Y-130175000D03*
X304812700Y-132715000D03*
D13*
X303542700Y-135255000D03*
D11*
X308622700Y-135255000D03*
D13*
X313702700Y-135255000D03*
D14*
X315222700Y-130175000D03*
X300822700Y-132715000D03*
%TD*%
D12*
%TO.C,SW47*%
X333375000Y-132702300D03*
D11*
X337185000Y-135242300D03*
D13*
X332105000Y-135242300D03*
D12*
X339725000Y-130162300D03*
D13*
X342265000Y-135242300D03*
D14*
X343785000Y-130162300D03*
X329385000Y-132702300D03*
%TD*%
D11*
%TO.C,SW48*%
X356235000Y-135242300D03*
D12*
X358775000Y-130162300D03*
X352425000Y-132702300D03*
D13*
X351155000Y-135242300D03*
X361315000Y-135242300D03*
D14*
X362835000Y-130162300D03*
X348435000Y-132702300D03*
%TD*%
D13*
%TO.C,SW49*%
X380365000Y-135242300D03*
D11*
X375285000Y-135242300D03*
D12*
X377825000Y-130162300D03*
X371475000Y-132702300D03*
D13*
X370205000Y-135242300D03*
D14*
X381885000Y-130162300D03*
X367485000Y-132702300D03*
%TD*%
D13*
%TO.C,SW50*%
X48736250Y-154305000D03*
D11*
X53816250Y-154305000D03*
D12*
X56356250Y-149225000D03*
X50006250Y-151765000D03*
D13*
X58896250Y-154305000D03*
D14*
X60416250Y-149225000D03*
X46016250Y-151765000D03*
%TD*%
D13*
%TO.C,SW52*%
X74930000Y-154305000D03*
D11*
X80010000Y-154305000D03*
D12*
X82550000Y-149225000D03*
D13*
X85090000Y-154305000D03*
D12*
X76200000Y-151765000D03*
D14*
X86610000Y-149225000D03*
X72210000Y-151765000D03*
%TD*%
D11*
%TO.C,SW53*%
X99060000Y-154305000D03*
D12*
X101600000Y-149225000D03*
D13*
X104140000Y-154305000D03*
D12*
X95250000Y-151765000D03*
D13*
X93980000Y-154305000D03*
D14*
X105660000Y-149225000D03*
X91260000Y-151765000D03*
%TD*%
D12*
%TO.C,SW54*%
X114300000Y-151765000D03*
D13*
X123190000Y-154305000D03*
D11*
X118110000Y-154305000D03*
D13*
X113030000Y-154305000D03*
D12*
X120650000Y-149225000D03*
D14*
X124710000Y-149225000D03*
X110310000Y-151765000D03*
%TD*%
D12*
%TO.C,SW55*%
X139700000Y-149225000D03*
X133350000Y-151765000D03*
D13*
X132080000Y-154305000D03*
D11*
X137160000Y-154305000D03*
D13*
X142240000Y-154305000D03*
D14*
X143760000Y-149225000D03*
X129360000Y-151765000D03*
%TD*%
D13*
%TO.C,SW56*%
X161290000Y-154305000D03*
D12*
X152400000Y-151765000D03*
D11*
X156210000Y-154305000D03*
D13*
X151130000Y-154305000D03*
D12*
X158750000Y-149225000D03*
D14*
X162810000Y-149225000D03*
X148410000Y-151765000D03*
%TD*%
D13*
%TO.C,SW57*%
X180340000Y-154305000D03*
D12*
X177800000Y-149225000D03*
D13*
X170180000Y-154305000D03*
D11*
X175260000Y-154305000D03*
D12*
X171450000Y-151765000D03*
D14*
X181860000Y-149225000D03*
X167460000Y-151765000D03*
%TD*%
D13*
%TO.C,SW58*%
X189230000Y-154305000D03*
D12*
X196850000Y-149225000D03*
D11*
X194310000Y-154305000D03*
D13*
X199390000Y-154305000D03*
D12*
X190500000Y-151765000D03*
D14*
X200910000Y-149225000D03*
X186510000Y-151765000D03*
%TD*%
D13*
%TO.C,SW59*%
X218440000Y-154305000D03*
D12*
X215900000Y-149225000D03*
X209550000Y-151765000D03*
D13*
X208280000Y-154305000D03*
D11*
X213360000Y-154305000D03*
D14*
X219960000Y-149225000D03*
X205560000Y-151765000D03*
%TD*%
D11*
%TO.C,SW60*%
X232410000Y-154305000D03*
D13*
X227330000Y-154305000D03*
X237490000Y-154305000D03*
D12*
X234950000Y-149225000D03*
X228600000Y-151765000D03*
D14*
X239010000Y-149225000D03*
X224610000Y-151765000D03*
%TD*%
D12*
%TO.C,SW61*%
X254000000Y-149225000D03*
D11*
X251460000Y-154305000D03*
D13*
X246380000Y-154305000D03*
X256540000Y-154305000D03*
D12*
X247650000Y-151765000D03*
D14*
X258060000Y-149225000D03*
X243660000Y-151765000D03*
%TD*%
D12*
%TO.C,SW62*%
X273050000Y-149225000D03*
D13*
X275590000Y-154305000D03*
X265430000Y-154305000D03*
D12*
X266700000Y-151765000D03*
D11*
X270510000Y-154305000D03*
D14*
X277110000Y-149225000D03*
X262710000Y-151765000D03*
%TD*%
D13*
%TO.C,SW63*%
X306546250Y-154305000D03*
D10*
X289528250Y-147320000D03*
D12*
X297656250Y-151765000D03*
D10*
X313404250Y-147320000D03*
D11*
X289528250Y-162560000D03*
D13*
X296386250Y-154305000D03*
D11*
X301466250Y-154305000D03*
D12*
X304006250Y-149225000D03*
D11*
X313404250Y-162560000D03*
D14*
X308066250Y-149225000D03*
X293666250Y-151765000D03*
%TD*%
D10*
%TO.C,SW64*%
X70516750Y-166370000D03*
D13*
X63658750Y-173355000D03*
D10*
X46640750Y-166370000D03*
D12*
X61118750Y-168275000D03*
D11*
X70516750Y-181610000D03*
D12*
X54768750Y-170815000D03*
D11*
X58578750Y-173355000D03*
D13*
X53498750Y-173355000D03*
D11*
X46640750Y-181610000D03*
D14*
X65178750Y-168275000D03*
X50778750Y-170815000D03*
%TD*%
D12*
%TO.C,SW65*%
X85725000Y-170815000D03*
D13*
X94615000Y-173355000D03*
X84455000Y-173355000D03*
D11*
X89535000Y-173355000D03*
D12*
X92075000Y-168275000D03*
D14*
X96135000Y-168275000D03*
X81735000Y-170815000D03*
%TD*%
D13*
%TO.C,SW66*%
X103505000Y-173355000D03*
X113665000Y-173355000D03*
D11*
X108585000Y-173355000D03*
D12*
X104775000Y-170815000D03*
X111125000Y-168275000D03*
D14*
X115185000Y-168275000D03*
X100785000Y-170815000D03*
%TD*%
D11*
%TO.C,SW67*%
X127635000Y-173355000D03*
D13*
X132715000Y-173355000D03*
D12*
X130175000Y-168275000D03*
D13*
X122555000Y-173355000D03*
D12*
X123825000Y-170815000D03*
D14*
X134235000Y-168275000D03*
X119835000Y-170815000D03*
%TD*%
D12*
%TO.C,SW68*%
X142875000Y-170815000D03*
D13*
X141605000Y-173355000D03*
D11*
X146685000Y-173355000D03*
D13*
X151765000Y-173355000D03*
D12*
X149225000Y-168275000D03*
D14*
X153285000Y-168275000D03*
X138885000Y-170815000D03*
%TD*%
D11*
%TO.C,SW69*%
X165735000Y-173355000D03*
D12*
X161925000Y-170815000D03*
D13*
X160655000Y-173355000D03*
X170815000Y-173355000D03*
D12*
X168275000Y-168275000D03*
D14*
X172335000Y-168275000D03*
X157935000Y-170815000D03*
%TD*%
D13*
%TO.C,SW70*%
X179705000Y-173355000D03*
X189865000Y-173355000D03*
D11*
X184785000Y-173355000D03*
D12*
X187325000Y-168275000D03*
X180975000Y-170815000D03*
D14*
X191385000Y-168275000D03*
X176985000Y-170815000D03*
%TD*%
D13*
%TO.C,SW71*%
X208915000Y-173355000D03*
D11*
X203835000Y-173355000D03*
D12*
X206375000Y-168275000D03*
X200025000Y-170815000D03*
D13*
X198755000Y-173355000D03*
D14*
X210435000Y-168275000D03*
X196035000Y-170815000D03*
%TD*%
D13*
%TO.C,SW72*%
X217805000Y-173355000D03*
D12*
X219075000Y-170815000D03*
D11*
X222885000Y-173355000D03*
D13*
X227965000Y-173355000D03*
D12*
X225425000Y-168275000D03*
D14*
X229485000Y-168275000D03*
X215085000Y-170815000D03*
%TD*%
D13*
%TO.C,SW73*%
X236855000Y-173355000D03*
D11*
X241935000Y-173355000D03*
D13*
X247015000Y-173355000D03*
D12*
X238125000Y-170815000D03*
X244475000Y-168275000D03*
D14*
X248535000Y-168275000D03*
X234135000Y-170815000D03*
%TD*%
D11*
%TO.C,SW74*%
X260985000Y-173355000D03*
D13*
X255905000Y-173355000D03*
X266065000Y-173355000D03*
D12*
X263525000Y-168275000D03*
X257175000Y-170815000D03*
D14*
X267585000Y-168275000D03*
X253185000Y-170815000D03*
%TD*%
D12*
%TO.C,SW76*%
X352425000Y-170802300D03*
D13*
X351155000Y-173342300D03*
D12*
X358775000Y-168262300D03*
D11*
X356235000Y-173342300D03*
D13*
X361315000Y-173342300D03*
D14*
X362835000Y-168262300D03*
X348435000Y-170802300D03*
%TD*%
D11*
%TO.C,SW77*%
X51440080Y-192399920D03*
D13*
X46360080Y-192399920D03*
D12*
X48900080Y-197479920D03*
D13*
X56520080Y-192399920D03*
D12*
X55250080Y-194939920D03*
D14*
X44840080Y-197479920D03*
X59240080Y-194939920D03*
%TD*%
D12*
%TO.C,SW78*%
X45248830Y-189859920D03*
D11*
X49058830Y-192399920D03*
D13*
X54138830Y-192399920D03*
D12*
X51598830Y-187319920D03*
D13*
X43978830Y-192399920D03*
D14*
X55658830Y-187319920D03*
X41258830Y-189859920D03*
%TD*%
D12*
%TO.C,SW79*%
X75416410Y-187319920D03*
D13*
X77956410Y-192399920D03*
D12*
X69066410Y-189859920D03*
D11*
X72876410Y-192399920D03*
D13*
X67796410Y-192399920D03*
D14*
X79476410Y-187319920D03*
X65076410Y-189859920D03*
%TD*%
D13*
%TO.C,SW80*%
X80337660Y-192399920D03*
D12*
X79067660Y-194939920D03*
D13*
X70177660Y-192399920D03*
D12*
X72717660Y-197479920D03*
D11*
X75257660Y-192399920D03*
D14*
X68657660Y-197479920D03*
X83057660Y-194939920D03*
%TD*%
D11*
%TO.C,SW81*%
X99070160Y-192399920D03*
D12*
X102880160Y-194939920D03*
D13*
X104150160Y-192399920D03*
X93990160Y-192399920D03*
D12*
X96530160Y-197479920D03*
D14*
X92470160Y-197479920D03*
X106870160Y-194939920D03*
%TD*%
D12*
%TO.C,SW82*%
X92878910Y-189859920D03*
X99228910Y-187319920D03*
D13*
X101768910Y-192399920D03*
D11*
X96688910Y-192399920D03*
D13*
X91608910Y-192399920D03*
D14*
X103288910Y-187319920D03*
X88888910Y-189859920D03*
%TD*%
D12*
%TO.C,SW83*%
X170666600Y-186944000D03*
D13*
X163046600Y-192024000D03*
X173206600Y-192024000D03*
D11*
X168126600Y-192024000D03*
D12*
X164316600Y-189484000D03*
D14*
X174726600Y-186944000D03*
X160326600Y-189484000D03*
%TD*%
D13*
%TO.C,SW84*%
X185112660Y-192399920D03*
X174952660Y-192399920D03*
D12*
X183842660Y-194939920D03*
D11*
X180032660Y-192399920D03*
D12*
X177492660Y-197479920D03*
D14*
X173432660Y-197479920D03*
X187832660Y-194939920D03*
%TD*%
D12*
%TO.C,SW85*%
X235753910Y-189859920D03*
X242103910Y-187319920D03*
D13*
X234483910Y-192399920D03*
D11*
X239563910Y-192399920D03*
D13*
X244643910Y-192399920D03*
D14*
X246163910Y-187319920D03*
X231763910Y-189859920D03*
%TD*%
D13*
%TO.C,SW86*%
X255915160Y-192399920D03*
X266075160Y-192399920D03*
D11*
X260995160Y-192399920D03*
D12*
X263535160Y-187319920D03*
X257185160Y-189859920D03*
D14*
X267595160Y-187319920D03*
X253195160Y-189859920D03*
%TD*%
D12*
%TO.C,SW87*%
X260836410Y-197479920D03*
D11*
X263376410Y-192399920D03*
D13*
X268456410Y-192399920D03*
D12*
X267186410Y-194939920D03*
D13*
X258296410Y-192399920D03*
D14*
X256776410Y-197479920D03*
X271176410Y-194939920D03*
%TD*%
D12*
%TO.C,SW88*%
X284648910Y-197479920D03*
X290998910Y-194939920D03*
D13*
X292268910Y-192399920D03*
D11*
X287188910Y-192399920D03*
D13*
X282108910Y-192399920D03*
D14*
X280588910Y-197479920D03*
X294988910Y-194939920D03*
%TD*%
D13*
%TO.C,SW89*%
X279727660Y-192399920D03*
D12*
X287347660Y-187319920D03*
X280997660Y-189859920D03*
D11*
X284807660Y-192399920D03*
D13*
X289887660Y-192399920D03*
D14*
X291407660Y-187319920D03*
X277007660Y-189859920D03*
%TD*%
D12*
%TO.C,SW90*%
X311160160Y-187319920D03*
D13*
X303540160Y-192399920D03*
D12*
X304810160Y-189859920D03*
D11*
X308620160Y-192399920D03*
D13*
X313700160Y-192399920D03*
D14*
X315220160Y-187319920D03*
X300820160Y-189859920D03*
%TD*%
D12*
%TO.C,SW91*%
X308462680Y-197479920D03*
X314812680Y-194939920D03*
D13*
X316082680Y-192399920D03*
D11*
X311002680Y-192399920D03*
D13*
X305922680Y-192399920D03*
D14*
X304402680Y-197479920D03*
X318802680Y-194939920D03*
%TD*%
D12*
%TO.C,SW92*%
X339725000Y-187325000D03*
D11*
X337185000Y-192405000D03*
D13*
X332105000Y-192405000D03*
D12*
X333375000Y-189865000D03*
D13*
X342265000Y-192405000D03*
D14*
X343785000Y-187325000D03*
X329385000Y-189865000D03*
%TD*%
D13*
%TO.C,SW93*%
X361315000Y-192405000D03*
D12*
X358775000Y-187325000D03*
D11*
X356235000Y-192405000D03*
D12*
X352425000Y-189865000D03*
D13*
X351155000Y-192405000D03*
D14*
X362835000Y-187325000D03*
X348435000Y-189865000D03*
%TD*%
D12*
%TO.C,SW94*%
X377835160Y-187325000D03*
D13*
X380375160Y-192405000D03*
X370215160Y-192405000D03*
D12*
X371485160Y-189865000D03*
D11*
X375295160Y-192405000D03*
D14*
X381895160Y-187325000D03*
X367495160Y-189865000D03*
%TD*%
D28*
%TO.C,USB1*%
X213991251Y-63897700D03*
X213141251Y-63897700D03*
X212291251Y-63897700D03*
X211441251Y-63897700D03*
X210591251Y-63897700D03*
X209741251Y-63897700D03*
X208891251Y-63897700D03*
X208041251Y-63897700D03*
X208036251Y-62572700D03*
X208886251Y-62572700D03*
X209736251Y-62572700D03*
X210586251Y-62572700D03*
X211436251Y-62572700D03*
X212286251Y-62572700D03*
X213136251Y-62572700D03*
X213991251Y-62572700D03*
D29*
X215341251Y-59537700D03*
D30*
X206691251Y-62917700D03*
D29*
X206691251Y-59537700D03*
D30*
X215341251Y-62917700D03*
%TD*%
D31*
%TO.C,Y1*%
X269227300Y-78447900D03*
X264347300Y-78447900D03*
%TD*%
D11*
%TO.C,SW75*%
X308641750Y-181616350D03*
D10*
X284765750Y-166376350D03*
D11*
X284765750Y-181616350D03*
D13*
X291623750Y-173361350D03*
D12*
X299243750Y-168281350D03*
D11*
X296703750Y-173361350D03*
D10*
X308641750Y-166376350D03*
D13*
X301783750Y-173361350D03*
D12*
X292893750Y-170821350D03*
D14*
X303303750Y-168281350D03*
X288903750Y-170821350D03*
%TD*%
D21*
%TO.C,REF\u002A\u002A*%
X134734300Y-78063500D03*
%TD*%
%TO.C,REF\u002A\u002A*%
X287223200Y-78063500D03*
%TD*%
D25*
%TO.C,OL1*%
X288417000Y-72466200D03*
D32*
X288417000Y-69926200D03*
X288417000Y-67386200D03*
X288417000Y-64846200D03*
%TD*%
D33*
%TO.C,J2*%
X64830960Y-102824280D03*
X64830960Y-100284280D03*
X64830960Y-97744280D03*
%TD*%
%TO.C,J2*%
X363372400Y-102824280D03*
X363372400Y-100284280D03*
X363372400Y-97744280D03*
%TD*%
%TO.C,J2*%
X373735600Y-178104800D03*
X373735600Y-180644800D03*
X373735600Y-183184800D03*
%TD*%
%TO.C,J2*%
X74193400Y-178104800D03*
X74193400Y-180644800D03*
X74193400Y-183184800D03*
%TD*%
%TO.C,J2*%
X381787400Y-125882400D03*
X381787400Y-123342400D03*
X381787400Y-120802400D03*
%TD*%
%TO.C,J2*%
X363575600Y-125984000D03*
X363575600Y-123444000D03*
X363575600Y-120904000D03*
%TD*%
%TO.C,J2*%
X373684800Y-172542200D03*
X376224800Y-172542200D03*
X378764800Y-172542200D03*
%TD*%
%TO.C,J2*%
X373583200Y-154330400D03*
X376123200Y-154330400D03*
X378663200Y-154330400D03*
%TD*%
%TO.C,J2*%
X48920400Y-158013400D03*
X48920400Y-160553400D03*
X48920400Y-163093400D03*
%TD*%
%TO.C,J2*%
X67132200Y-157911800D03*
X67132200Y-160451800D03*
X67132200Y-162991800D03*
%TD*%
%TO.C,J2*%
X64185800Y-125857000D03*
X64185800Y-123317000D03*
X64185800Y-120777000D03*
%TD*%
%TO.C,J2*%
X45974000Y-125958600D03*
X45974000Y-123418600D03*
X45974000Y-120878600D03*
%TD*%
D34*
%TO.C,330*%
X285242000Y-69046600D03*
X285242000Y-67046600D03*
%TD*%
M02*
