M48
INCH
T1C0.0670
T2C0.1181
T3C0.1200
T4C0.1570
%
G90
G05
T1
X1.638Y-3.637
X1.638Y-4.5745
X1.7314Y-7.5748
X1.825Y-5.325
X1.8252Y-7.5748
X1.9187Y-6.075
X2.038Y-3.637
X2.038Y-4.5745
X2.1062Y-6.825
X2.1315Y-7.5748
X2.225Y-5.325
X2.2252Y-7.5748
X2.3188Y-6.075
X2.388Y-4.5745
X2.5063Y-6.825
X2.6692Y-7.5748
X2.7625Y-5.325
X2.7629Y-7.5748
X2.788Y-4.5745
X2.95Y-6.075
X3.0692Y-7.5748
X3.138Y-3.637
X3.138Y-4.5745
X3.1625Y-5.325
X3.1629Y-7.5748
X3.325Y-6.825
X3.35Y-6.075
X3.5125Y-5.325
X3.538Y-3.637
X3.538Y-4.5745
X3.6067Y-7.5748
X3.7Y-6.075
X3.7004Y-7.5748
X3.725Y-6.825
X3.888Y-3.637
X3.888Y-4.5745
X3.9125Y-5.325
X4.0066Y-7.5748
X4.075Y-6.825
X4.1Y-6.075
X4.1004Y-7.5748
X4.2625Y-5.325
X4.288Y-3.637
X4.288Y-4.5745
X4.45Y-6.075
X4.475Y-6.825
X4.638Y-3.637
X4.638Y-4.5745
X4.6625Y-5.325
X4.825Y-6.825
X4.85Y-6.075
X5.0125Y-5.325
X5.038Y-3.637
X5.038Y-4.5745
X5.2Y-6.075
X5.225Y-6.825
X5.3877Y-3.6371
X5.388Y-4.5745
X5.4125Y-5.325
X5.575Y-6.825
X5.6Y-6.075
X5.7625Y-5.325
X5.7877Y-3.6371
X5.788Y-4.5745
X5.95Y-6.075
X5.975Y-6.825
X6.138Y-4.5745
X6.1625Y-5.325
X6.325Y-6.825
X6.35Y-6.075
X6.4192Y-7.56
X6.5125Y-3.6375
X6.5125Y-5.325
X6.538Y-4.5745
X6.7Y-6.075
X6.725Y-6.825
X6.8192Y-7.56
X6.8879Y-7.5748
X6.888Y-4.5745
X6.9125Y-3.6375
X6.9125Y-5.325
X7.075Y-6.825
X7.1Y-6.075
X7.2625Y-3.6375
X7.2625Y-5.325
X7.2879Y-7.5748
X7.288Y-4.5745
X7.45Y-6.075
X7.475Y-6.825
X7.638Y-4.5745
X7.6625Y-3.6375
X7.6625Y-5.325
X7.825Y-6.825
X7.85Y-6.075
X8.0125Y-3.6375
X8.0125Y-5.325
X8.038Y-4.5745
X8.2Y-6.075
X8.225Y-6.825
X8.388Y-4.5745
X8.4125Y-3.6375
X8.4125Y-5.325
X8.575Y-6.825
X8.6Y-6.075
X8.7625Y-3.6375
X8.7625Y-5.325
X8.788Y-4.5745
X8.95Y-6.075
X8.975Y-6.825
X9.138Y-4.5745
X9.1625Y-3.6375
X9.1625Y-5.325
X9.2317Y-7.5748
X9.325Y-6.825
X9.35Y-6.075
X9.5125Y-5.325
X9.538Y-4.5745
X9.6317Y-7.5748
X9.7Y-6.075
X9.725Y-6.825
X9.888Y-3.637
X9.888Y-4.5745
X9.9125Y-5.325
X10.075Y-6.825
X10.0754Y-7.5748
X10.1Y-6.075
X10.1692Y-7.5748
X10.2625Y-5.325
X10.288Y-3.637
X10.288Y-4.5745
X10.45Y-6.075
X10.475Y-6.825
X10.4754Y-7.5748
X10.5692Y-7.5748
X10.6375Y-3.637
X10.638Y-4.5745
X10.6625Y-5.325
X10.85Y-6.075
X11.0125Y-5.325
X11.0129Y-7.5748
X11.0375Y-3.637
X11.038Y-4.5745
X11.1067Y-7.5748
X11.388Y-3.637
X11.4125Y-5.325
X11.4129Y-7.5748
X11.4812Y-6.8252
X11.5067Y-7.5748
X11.6687Y-6.075
X11.763Y-4.5745
X11.788Y-3.637
X11.8812Y-6.8252
X11.9504Y-7.5748
X11.9505Y-5.325
X12.0442Y-7.5748
X12.0687Y-6.075
X12.138Y-3.637
X12.163Y-4.5745
X12.3504Y-7.5748
X12.3505Y-5.325
X12.4442Y-7.5748
X12.538Y-3.637
X13.075Y-4.5745
X13.075Y-5.3245
X13.075Y-7.575
X13.0755Y-3.637
X13.475Y-4.5745
X13.475Y-5.3245
X13.475Y-7.575
X13.4755Y-3.637
X13.825Y-3.637
X13.825Y-4.5745
X13.825Y-5.3245
X13.825Y-6.8245
X13.825Y-7.575
X14.225Y-3.637
X14.225Y-4.5745
X14.225Y-5.3245
X14.225Y-6.8245
X14.225Y-7.575
X14.575Y-3.637
X14.575Y-4.5745
X14.575Y-5.3245
X14.5754Y-7.575
X14.975Y-3.637
X14.975Y-4.5745
X14.975Y-5.3245
X14.9754Y-7.575
T2
X1.688Y-3.537
X1.688Y-4.4745
X1.7814Y-7.4748
X1.875Y-5.225
X1.9252Y-7.7748
X1.938Y-3.437
X1.938Y-4.3745
X1.9688Y-5.975
X2.0314Y-7.3748
X2.125Y-5.125
X2.1562Y-6.725
X2.1752Y-7.6748
X2.2188Y-5.875
X2.4062Y-6.625
X2.438Y-4.4745
X2.688Y-4.3745
X2.7191Y-7.4748
X2.8125Y-5.225
X2.8629Y-7.7748
X2.9691Y-7.3748
X3.0Y-5.975
X3.0625Y-5.125
X3.1129Y-7.6748
X3.188Y-3.537
X3.188Y-4.4745
X3.25Y-5.875
X3.375Y-6.725
X3.438Y-3.437
X3.438Y-4.3745
X3.5625Y-5.225
X3.625Y-6.625
X3.6566Y-7.4748
X3.75Y-5.975
X3.8004Y-7.7748
X3.8125Y-5.125
X3.9066Y-7.3748
X3.938Y-3.537
X3.938Y-4.4745
X4.0Y-5.875
X4.0504Y-7.6748
X4.125Y-6.725
X4.188Y-3.437
X4.188Y-4.3745
X4.3125Y-5.225
X4.375Y-6.625
X4.5Y-5.975
X4.5625Y-5.125
X4.688Y-3.537
X4.688Y-4.4745
X4.75Y-5.875
X4.875Y-6.725
X4.938Y-3.437
X4.938Y-4.3745
X5.0625Y-5.225
X5.125Y-6.625
X5.25Y-5.975
X5.3125Y-5.125
X5.4377Y-3.5371
X5.438Y-4.4745
X5.5Y-5.875
X5.625Y-6.725
X5.6877Y-3.4371
X5.688Y-4.3745
X5.8125Y-5.225
X5.875Y-6.625
X6.0Y-5.975
X6.0625Y-5.125
X6.188Y-4.4745
X6.25Y-5.875
X6.375Y-6.725
X6.438Y-4.3745
X6.4692Y-7.46
X6.5625Y-3.5375
X6.5625Y-5.225
X6.625Y-6.625
X6.7192Y-7.36
X6.75Y-5.975
X6.8125Y-3.4375
X6.8125Y-5.125
X6.938Y-4.4745
X6.9879Y-7.7748
X7.0Y-5.875
X7.125Y-6.725
X7.188Y-4.3745
X7.2379Y-7.6748
X7.3125Y-3.5375
X7.3125Y-5.225
X7.375Y-6.625
X7.5Y-5.975
X7.5625Y-3.4375
X7.5625Y-5.125
X7.688Y-4.4745
X7.75Y-5.875
X7.875Y-6.725
X7.938Y-4.3745
X8.0625Y-3.5375
X8.0625Y-5.225
X8.125Y-6.625
X8.25Y-5.975
X8.3125Y-3.4375
X8.3125Y-5.125
X8.438Y-4.4745
X8.5Y-5.875
X8.625Y-6.725
X8.688Y-4.3745
X8.8125Y-3.5375
X8.8125Y-5.225
X8.875Y-6.625
X9.0Y-5.975
X9.0625Y-3.4375
X9.0625Y-5.125
X9.188Y-4.4745
X9.25Y-5.875
X9.2816Y-7.4748
X9.375Y-6.725
X9.438Y-4.3745
X9.5316Y-7.3748
X9.5625Y-5.225
X9.625Y-6.625
X9.75Y-5.975
X9.8125Y-5.125
X9.938Y-3.537
X9.938Y-4.4745
X10.0Y-5.875
X10.125Y-6.725
X10.1254Y-7.4748
X10.188Y-3.437
X10.188Y-4.3745
X10.2691Y-7.7748
X10.3125Y-5.225
X10.375Y-6.625
X10.3754Y-7.3748
X10.5Y-5.975
X10.5191Y-7.6748
X10.5625Y-5.125
X10.6875Y-3.537
X10.688Y-4.4745
X10.75Y-5.875
X10.9375Y-3.437
X10.938Y-4.3745
X11.0625Y-5.225
X11.0629Y-7.4748
X11.2066Y-7.7748
X11.3125Y-5.125
X11.3129Y-7.3748
X11.438Y-3.537
X11.4566Y-7.6748
X11.5312Y-6.7252
X11.688Y-3.437
X11.7188Y-5.975
X11.7812Y-6.6252
X11.813Y-4.4745
X11.9688Y-5.875
X12.0004Y-7.4748
X12.0005Y-5.225
X12.063Y-4.3745
X12.1442Y-7.7748
X12.188Y-3.537
X12.2504Y-7.3748
X12.2505Y-5.125
X12.3942Y-7.6748
X12.438Y-3.437
X13.125Y-4.4745
X13.125Y-5.2245
X13.125Y-7.475
X13.1255Y-3.537
X13.375Y-4.3745
X13.375Y-5.1245
X13.375Y-7.375
X13.3755Y-3.437
X13.875Y-3.537
X13.875Y-4.4745
X13.875Y-5.2245
X13.875Y-6.7245
X13.875Y-7.475
X14.125Y-3.437
X14.125Y-4.3745
X14.125Y-5.1245
X14.125Y-6.6245
X14.125Y-7.375
X14.625Y-3.537
X14.625Y-4.4745
X14.625Y-5.2245
X14.6254Y-7.475
X14.875Y-3.437
X14.875Y-4.3745
X14.875Y-5.1245
X14.8754Y-7.375
T3
X1.8362Y-6.55
X2.7763Y-6.55
X4.65Y-7.8505
X4.8375Y-7.85
X8.587Y-7.8505
X9.3375Y-7.85
X11.2112Y-6.5503
X11.3987Y-5.8
X11.493Y-4.2995
X12.1512Y-6.5503
X12.3387Y-5.8
X12.433Y-4.2995
T4
X1.8362Y-7.15
X1.838Y-3.637
X1.838Y-4.5745
X1.9314Y-7.5748
X2.025Y-5.325
X2.0252Y-7.5748
X2.1187Y-6.075
X2.3062Y-6.825
X2.588Y-4.5745
X2.7763Y-7.15
X2.8691Y-7.5748
X2.9625Y-5.325
X2.9629Y-7.5748
X3.15Y-6.075
X3.338Y-3.637
X3.338Y-4.5745
X3.525Y-6.825
X3.7125Y-5.325
X3.8066Y-7.5748
X3.9Y-6.075
X3.9004Y-7.5748
X4.088Y-3.637
X4.088Y-4.5745
X4.275Y-6.825
X4.4625Y-5.325
X4.65Y-6.075
X4.65Y-7.2505
X4.8375Y-7.25
X4.838Y-3.637
X4.838Y-4.5745
X5.025Y-6.825
X5.2125Y-5.325
X5.4Y-6.075
X5.5877Y-3.6371
X5.588Y-4.5745
X5.775Y-6.825
X5.9625Y-5.325
X6.15Y-6.075
X6.338Y-4.5745
X6.525Y-6.825
X6.6192Y-7.56
X6.7125Y-3.6375
X6.7125Y-5.325
X6.9Y-6.075
X7.0879Y-7.5748
X7.088Y-4.5745
X7.275Y-6.825
X7.4625Y-3.6375
X7.4625Y-5.325
X7.65Y-6.075
X7.838Y-4.5745
X8.025Y-6.825
X8.2125Y-3.6375
X8.2125Y-5.325
X8.4Y-6.075
X8.587Y-7.2505
X8.588Y-4.5745
X8.775Y-6.825
X8.9625Y-3.6375
X8.9625Y-5.325
X9.15Y-6.075
X9.3375Y-7.25
X9.338Y-4.5745
X9.4316Y-7.5748
X9.525Y-6.825
X9.7125Y-5.325
X9.9Y-6.075
X10.088Y-3.637
X10.088Y-4.5745
X10.275Y-6.825
X10.2754Y-7.5748
X10.3691Y-7.5748
X10.4625Y-5.325
X10.65Y-6.075
X10.8375Y-3.637
X10.838Y-4.5745
X11.2112Y-7.1502
X11.2125Y-5.325
X11.2129Y-7.5748
X11.3066Y-7.5748
X11.3987Y-6.4
X11.493Y-4.8995
X11.588Y-3.637
X11.6813Y-6.8252
X11.8688Y-6.075
X11.963Y-4.5745
X12.1504Y-7.5748
X12.1505Y-5.325
X12.1512Y-7.1502
X12.2442Y-7.5748
X12.338Y-3.637
X12.3387Y-6.4
X12.433Y-4.8995
X13.275Y-4.5745
X13.275Y-5.3245
X13.275Y-7.575
X13.2755Y-3.637
X14.025Y-3.637
X14.025Y-4.5745
X14.025Y-5.3245
X14.025Y-6.8245
X14.025Y-7.575
X14.775Y-3.637
X14.775Y-4.5745
X14.775Y-5.3245
X14.7754Y-7.575
T0
M30
